<svg version="1.1" xmlns="http://www.w3.org/2000/svg" xmlns:xlink="http://www.w3.org/1999/xlink" width="134" height="134" viewBox="0,0,134,134"><g transform="translate(-173,-113)"><g data-paper-data="{&quot;isPaintingLayer&quot;:true}" fill-rule="nonzero" stroke-linecap="butt" stroke-linejoin="miter" stroke-miterlimit="10" stroke-dasharray="" stroke-dashoffset="0" style="mix-blend-mode: normal"><path d="M173,247v-134h134v134z" fill="none" stroke="none" stroke-width="0"/><path d="M191.22857,180c0,-26.93572 21.83571,-48.77143 48.77143,-48.77143c26.93572,0 48.77143,21.83571 48.77143,48.77143c0,26.93572 -21.83571,48.77143 -48.77143,48.77143c-26.93572,0 -48.77143,-21.83571 -48.77143,-48.77143z" fill="none" stroke-opacity="0.39516" stroke="#ffffff" stroke-width="3.5"/><path d="M202.62857,180c0,-20.63967 16.73176,-37.37143 37.37143,-37.37143c20.63967,0 37.37143,16.73176 37.37143,37.37143c0,20.63967 -16.73176,37.37143 -37.37143,37.37143c-20.63967,0 -37.37143,-16.73176 -37.37143,-37.37143z" fill-opacity="0.40323" fill="#ffffff" stroke="none" stroke-width="0"/></g></g></svg>