<svg version="1.1" xmlns="http://www.w3.org/2000/svg" xmlns:xlink="http://www.w3.org/1999/xlink" width="492.49249" height="405.40541" viewBox="0,0,492.49249,405.40541"><defs><linearGradient x1="239.24925" y1="-42.22222" x2="239.24925" y2="2.82282" gradientUnits="userSpaceOnUse" id="color-1"><stop offset="0" stop-color="#000000" stop-opacity="0"/><stop offset="1" stop-color="#000000"/></linearGradient></defs><g transform="translate(5.4955,42.22223)"><g data-paper-data="{&quot;isPaintingLayer&quot;:true}" fill-rule="nonzero" stroke-linejoin="miter" stroke-miterlimit="10" stroke-dasharray="" stroke-dashoffset="0" style="mix-blend-mode: normal"><path d="M126.44737,165.4126h5.10337v19.02703h8.43679v4.42489h-13.54016zM151.7309,189.39551c-1.82895,0 -3.44158,-0.39332 -4.83788,-1.17997c-1.3963,-0.80631 -2.48777,-1.92729 -3.27442,-3.36292c-0.76698,-1.4553 -1.15047,-3.13676 -1.15047,-5.04438c0,-1.90762 0.37366,-3.57924 1.12097,-5.01488c0.76698,-1.43563 1.84862,-2.5566 3.24492,-3.36292c1.3963,-0.80631 3.01876,-1.20947 4.86738,-1.20947c1.82895,0 3.44158,0.39332 4.83788,1.17997c1.3963,0.78665 2.46811,1.89779 3.21542,3.33342c0.76698,1.43563 1.15047,3.09742 1.15047,4.98538c0,1.88795 -0.38349,3.56941 -1.15047,5.04438c-0.74731,1.47496 -1.81912,2.6156 -3.21542,3.42192c-1.3963,0.80631 -2.99909,1.20947 -4.80838,1.20947zM151.7014,185.08862c1.25864,0 2.27144,-0.48182 3.03842,-1.44546c0.76698,-0.98331 1.15047,-2.27144 1.15047,-3.8644c0,-1.59296 -0.38349,-2.86143 -1.15047,-3.80541c-0.76698,-0.96364 -1.77979,-1.44546 -3.03842,-1.44546c-1.2783,0 -2.30094,0.48182 -3.06792,1.44546c-0.74731,0.94398 -1.12097,2.21245 -1.12097,3.80541c0,1.59296 0.37366,2.8811 1.12097,3.8644c0.76698,0.96364 1.78962,1.44546 3.06792,1.44546zM170.05435,189.39551c-1.88795,0 -3.38258,-0.79648 -4.48389,-2.38944c-1.10131,-1.59296 -1.65196,-3.76607 -1.65196,-6.51934c0,-3.34325 0.84565,-5.89002 2.53694,-7.64031c1.69129,-1.75029 4.12006,-2.62543 7.28632,-2.62543c1.78962,0 3.87424,0.28516 6.25385,0.85548v17.78806h-4.71988l0.118,-2.89093h-0.1475c-0.60965,1.10131 -1.35697,1.94695 -2.24194,2.53694c-0.86531,0.58999 -1.84862,0.88498 -2.94993,0.88498zM171.08682,185.05912c0.72765,0 1.44546,-0.38349 2.15345,-1.15047c0.70798,-0.78665 1.3668,-1.81912 1.97645,-3.09742v-5.92935c-0.74731,-0.21633 -1.49463,-0.32449 -2.24194,-0.32449c-1.41596,0 -2.48777,0.48182 -3.21542,1.44546c-0.70798,0.96364 -1.06197,2.38944 -1.06197,4.27739c0,1.47496 0.20649,2.6451 0.61948,3.51041c0.43266,0.84565 1.02264,1.26847 1.76996,1.26847zM190.2623,189.39551c-2.04528,0 -3.64808,-0.77681 -4.80838,-2.33044c-1.1603,-1.57329 -1.74046,-3.75624 -1.74046,-6.54884c0,-3.30392 0.85548,-5.84086 2.56644,-7.61081c1.73062,-1.78962 4.19873,-2.68443 7.40432,-2.68443c0.39332,0 0.99314,0.0295 1.79946,0.0885v-7.16832h4.89688v25.72336h-4.83788l0.118,-2.35994h-0.1475c-0.60965,0.94398 -1.35697,1.66179 -2.24194,2.15345c-0.88498,0.49165 -1.88795,0.73748 -3.00893,0.73748zM191.38327,185.05912c0.74731,0 1.47496,-0.32449 2.18295,-0.97348c0.70798,-0.64898 1.34713,-1.57329 1.91745,-2.77293v-6.43084c-0.80631,-0.21633 -1.57329,-0.32449 -2.30094,-0.32449c-1.47496,0 -2.59594,0.48182 -3.36292,1.44546c-0.76698,0.96364 -1.15047,2.36977 -1.15047,4.2184c0,1.5143 0.23599,2.7041 0.70798,3.56941c0.49165,0.84565 1.1603,1.26847 2.00595,1.26847zM207.01607,163.14116h5.66386v4.60189h-5.66386zM204.27264,184.61663h3.39242v-9.61676h-3.39242v-4.27739h8.34829v13.89416h3.03842v4.24789h-11.38672zM218.94003,170.72247h4.83788v3.12692c0.76698,-1.23897 1.64213,-2.15345 2.62543,-2.74343c0.98331,-0.58999 2.13378,-0.88498 3.45141,-0.88498c1.94695,0 3.47108,0.58999 4.57239,1.76996c1.10131,1.1603 1.65196,2.77293 1.65196,4.83788v12.0357h-4.95588v-11.26872c0,-0.94398 -0.23599,-1.68146 -0.70798,-2.21245c-0.47199,-0.53099 -1.11114,-0.79648 -1.91745,-0.79648c-0.92431,0 -1.80929,0.35399 -2.65493,1.06197c-0.84565,0.70798 -1.49463,1.60279 -1.94695,2.68443v10.53124h-4.95588zM246.36634,196.85882c-2.08462,0 -4.1299,-0.26549 -6.13585,-0.79648l0.94398,-4.36589c2.26161,0.64898 4.14956,0.97348 5.66386,0.97348c1.17997,0 2.09445,-0.18683 2.74343,-0.56049c0.64898,-0.37366 1.11114,-0.96364 1.38647,-1.76996c0.27533,-0.78665 0.43266,-1.87812 0.47199,-3.27442h-0.118c-0.64898,0.74731 -1.40613,1.32747 -2.27144,1.74046c-0.86531,0.39332 -1.81912,0.58999 -2.86143,0.58999c-2.06495,0 -3.67758,-0.77681 -4.83788,-2.33044c-1.1603,-1.57329 -1.74046,-3.74641 -1.74046,-6.51934c0,-3.36292 0.85548,-5.91952 2.56644,-7.66981c1.73062,-1.76996 4.20856,-2.65493 7.43382,-2.65493c1.84862,0 4.05123,0.28516 6.60784,0.85548c0.059,4.83788 0.0885,8.47612 0.0885,10.91473c0,2.18295 -0.00983,3.82507 -0.0295,4.92638c-0.059,3.34325 -0.90464,5.83102 -2.53694,7.46332c-1.63229,1.65196 -4.09057,2.47794 -7.37482,2.47794zM247.48731,185.05912c0.72765,0 1.4258,-0.26549 2.09445,-0.79648c0.66865,-0.55065 1.26847,-1.31763 1.79946,-2.30094l-0.059,-7.07982c-0.76698,-0.21633 -1.5143,-0.32449 -2.24194,-0.32449c-1.47496,0 -2.59594,0.48182 -3.36292,1.44546c-0.76698,0.96364 -1.15047,2.35994 -1.15047,4.1889c0,1.53396 0.24583,2.7336 0.73748,3.59891c0.51132,0.84565 1.23897,1.26847 2.18295,1.26847zM268.04058,165.4126h5.10337v19.02703h8.43679v4.42489h-13.54016zM293.5011,189.39551c-2.93026,0 -5.24104,-0.84565 -6.93233,-2.53694c-1.67163,-1.69129 -2.50744,-4.0414 -2.50744,-7.05033c0,-1.94695 0.36382,-3.63824 1.09147,-5.07387c0.72765,-1.4553 1.75029,-2.56644 3.06792,-3.33342c1.3373,-0.78665 2.89093,-1.17997 4.66088,-1.17997c2.63527,0 4.65105,0.84565 6.04735,2.53694c1.41596,1.69129 2.12395,4.13973 2.12395,7.34532c0,0.53099 -0.00983,0.92431 -0.0295,1.17997h-11.9767c0.23599,1.25864 0.77681,2.21245 1.62246,2.86143c0.84565,0.62932 1.98628,0.94398 3.42192,0.94398c0.86531,0 1.76996,-0.10816 2.71393,-0.32449c0.94398,-0.21633 1.76996,-0.52115 2.47794,-0.91448l0.79648,3.9824c-0.94398,0.49165 -1.98628,0.87514 -3.12692,1.15047c-1.14064,0.27533 -2.29111,0.41299 -3.45141,0.41299zM296.30353,177.5663c-0.059,-1.02264 -0.41299,-1.82895 -1.06197,-2.41894c-0.62932,-0.60965 -1.47496,-0.91448 -2.53694,-0.91448c-1.00298,0 -1.82895,0.29499 -2.47794,0.88498c-0.64898,0.58999 -1.05214,1.40613 -1.20947,2.44844zM302.65245,170.78147l5.42787,-0.47199l4.0119,13.06818l3.83491,-12.65519h5.30987l-6.37184,18.14205h-5.81136zM332.06904,189.39551c-2.93026,0 -5.24104,-0.84565 -6.93233,-2.53694c-1.67163,-1.69129 -2.50744,-4.0414 -2.50744,-7.05033c0,-1.94695 0.36382,-3.63824 1.09147,-5.07387c0.72765,-1.4553 1.75029,-2.56644 3.06792,-3.33342c1.3373,-0.78665 2.89093,-1.17997 4.66088,-1.17997c2.63527,0 4.65105,0.84565 6.04735,2.53694c1.41596,1.69129 2.12395,4.13973 2.12395,7.34532c0,0.53099 -0.00983,0.92431 -0.0295,1.17997h-11.9767c0.23599,1.25864 0.77681,2.21245 1.62246,2.86143c0.84565,0.62932 1.98628,0.94398 3.42192,0.94398c0.86531,0 1.76996,-0.10816 2.71393,-0.32449c0.94398,-0.21633 1.76996,-0.52115 2.47794,-0.91448l0.79648,3.9824c-0.94398,0.49165 -1.98628,0.87514 -3.12692,1.15047c-1.14064,0.27533 -2.29111,0.41299 -3.45141,0.41299zM334.87147,177.5663c-0.059,-1.02264 -0.41299,-1.82895 -1.06197,-2.41894c-0.62932,-0.60965 -1.47496,-0.91448 -2.53694,-0.91448c-1.00298,0 -1.82895,0.29499 -2.47794,0.88498c-0.64898,0.58999 -1.05214,1.40613 -1.20947,2.44844zM342.16591,184.61663h3.21542v-17.22757h-3.03842v-4.24789h7.9943v21.47547h3.21542v4.24789h-11.38672z" fill="#000000" stroke="#ffffff" stroke-width="1.5" stroke-linecap="square"/><g fill="#000000" stroke="#ffffff" stroke-width="1.5" stroke-linecap="butt"><path d="M252.23617,216.88449v-8.22964h8.22964v8.22964z" data-paper-data="{&quot;index&quot;:null}"/><path d="M236.42661,216.88449v-8.22964h8.22964v8.22964z" data-paper-data="{&quot;index&quot;:null}"/><path d="M220.61704,216.88449v-8.22964h8.22964v8.22964z" data-paper-data="{&quot;index&quot;:null}"/></g><path d="M-5.4955,363.18318v-366.36637h492.49249v366.36637z" fill="#000000" stroke="none" stroke-width="0" stroke-linecap="butt"/><path d="M-3.99399,2.82282v-45.04505h486.48649v45.04505z" fill="url(#color-1)" stroke="none" stroke-width="0" stroke-linecap="butt"/><text transform="translate(193.75,186) scale(0.5,0.5)" font-size="40" xml:space="preserve" fill="#ffffff" fill-rule="nonzero" stroke="none" stroke-width="1" stroke-linecap="butt" stroke-linejoin="miter" stroke-miterlimit="10" stroke-dasharray="" stroke-dashoffset="0" font-family="Pixel" font-weight="normal" text-anchor="start" style="mix-blend-mode: normal"><tspan x="0" dy="0">You died!</tspan></text><text transform="translate(232.50001,208.76875) scale(0.5,0.5)" font-size="40" xml:space="preserve" fill="#ffffff" fill-rule="nonzero" stroke="none" stroke-width="1" stroke-linecap="butt" stroke-linejoin="miter" stroke-miterlimit="10" stroke-dasharray="" stroke-dashoffset="0" font-family="Pixel" font-weight="normal" text-anchor="start" style="mix-blend-mode: normal"><tspan x="0" dy="0">...</tspan></text></g></g></svg>