<svg version="1.1" xmlns="http://www.w3.org/2000/svg" xmlns:xlink="http://www.w3.org/1999/xlink" width="51.75" height="56.375" viewBox="0,0,51.75,56.375"><g transform="translate(-228.03911,-139.69869)"><g data-paper-data="{&quot;isPaintingLayer&quot;:true}" fill-rule="nonzero" stroke="none" stroke-linecap="butt" stroke-linejoin="miter" stroke-miterlimit="10" stroke-dasharray="" stroke-dashoffset="0" style="mix-blend-mode: normal"><path d="M240.09673,154.61865h14.6072c2.43454,0 4.30063,0.60289 5.59828,1.80867c1.30914,1.20578 1.9637,2.69866 1.9637,4.47862c0,1.49287 -0.46509,2.7733 -1.39526,3.84128c-0.62012,0.71199 -1.52732,1.27469 -2.72162,1.6881c1.81442,0.43638 3.14652,1.18856 3.99631,2.25654c0.86127,1.0565 1.29191,2.3886 1.29191,3.99631c0,1.30914 -0.30432,2.48621 -0.91295,3.53122c-0.60863,1.04501 -1.4412,1.87184 -2.49769,2.48047c-0.65457,0.37896 -1.64216,0.65457 -2.96278,0.82682c-1.757,0.22967 -2.92259,0.34451 -3.49677,0.34451h-13.47032zM247.96877,164.5233h3.39342c1.21727,0 2.06132,-0.20671 2.53215,-0.62012c0.48231,-0.4249 0.72347,-1.03353 0.72347,-1.8259c0,-0.73495 -0.24116,-1.30914 -0.72347,-1.72255c-0.47083,-0.41341 -1.29765,-0.62012 -2.48047,-0.62012h-3.4451zM247.96877,174.44518h3.97909c1.34359,0 2.29099,-0.23541 2.8422,-0.70624c0.55122,-0.48231 0.82682,-1.1254 0.82682,-1.92925c0,-0.74644 -0.27561,-1.34359 -0.82682,-1.79145c-0.53973,-0.45935 -1.49287,-0.68902 -2.85943,-0.68902h-3.96186z" fill="#000000" stroke-width="0.26458"/><path d="M228.03912,196.07369v-56.375h51.75v56.375z" fill="none" stroke-width="0"/></g></g></svg>