<svg version="1.1" xmlns="http://www.w3.org/2000/svg" xmlns:xlink="http://www.w3.org/1999/xlink" width="51.75" height="56.375" viewBox="0,0,51.75,56.375"><g transform="translate(-228.03912,-139.69869)"><g data-paper-data="{&quot;isPaintingLayer&quot;:true}" fill-rule="nonzero" stroke="none" stroke-linecap="butt" stroke-linejoin="miter" stroke-miterlimit="10" stroke-dasharray="" stroke-dashoffset="0" style="mix-blend-mode: normal"><path d="M257.77883,169.07459l6.83851,2.06706c-0.45935,1.91777 -1.18282,3.51974 -2.17041,4.80591c-0.98759,1.28617 -2.21634,2.25654 -3.68625,2.9111c-1.45842,0.65457 -3.31878,0.98185 -5.58105,0.98185c-2.74459,0 -4.98965,-0.39619 -6.73516,-1.18856c-1.73403,-0.80386 -3.23265,-2.2106 -4.49585,-4.22024c-1.2632,-2.00964 -1.8948,-4.58198 -1.8948,-7.71701c0,-4.18005 1.10817,-7.38973 3.32452,-9.62904c2.22783,-2.2508 5.37435,-3.37619 9.43956,-3.37619c3.18097,0 5.67867,0.64308 7.49308,1.92925c1.8259,1.28617 3.18097,3.26136 4.06521,5.92556l-6.89019,1.53307c-0.24116,-0.7694 -0.4938,-1.3321 -0.75792,-1.6881c-0.43638,-0.59715 -0.97037,-1.0565 -1.60197,-1.37804c-0.6316,-0.32154 -1.33784,-0.48231 -2.11873,-0.48231c-1.76848,0 -3.12356,0.71199 -4.06522,2.13596c-0.71198,1.0565 -1.06798,2.71588 -1.06798,4.97816c0,2.80201 0.42489,4.72552 1.27468,5.77053c0.84979,1.03353 2.04409,1.55029 3.5829,1.55029c1.49287,0 2.61827,-0.41915 3.37619,-1.25746c0.7694,-0.83831 1.32636,-2.05557 1.67087,-3.6518z" fill="#000000" stroke-width="0.26458"/><path d="M228.03913,196.07369v-56.375h51.75v56.375z" fill="none" stroke-width="0"/></g></g></svg>