<svg version="1.1" xmlns="http://www.w3.org/2000/svg" xmlns:xlink="http://www.w3.org/1999/xlink" width="51.75" height="56.375" viewBox="0,0,51.75,56.375"><g transform="translate(-228.03911,-139.69869)"><g data-paper-data="{&quot;isPaintingLayer&quot;:true}" fill-rule="nonzero" stroke="none" stroke-linecap="butt" stroke-linejoin="miter" stroke-miterlimit="10" stroke-dasharray="" stroke-dashoffset="0" style="mix-blend-mode: normal"><path d="M260.24848,186.37236h-7.07966v-8.73332c-0.68902,0.72347 -1.48139,1.26894 -2.37711,1.63642c-0.88425,0.36748 -1.87184,0.55122 -2.96279,0.55122c-2.22783,0 -4.07095,-0.79812 -5.52937,-2.39435c-1.45843,-1.60771 -2.18764,-3.90444 -2.18764,-6.89019c0,-1.99815 0.33303,-3.76089 0.99908,-5.28822c0.66605,-1.52733 1.59048,-2.66421 2.7733,-3.41064c1.18281,-0.75792 2.48621,-1.13688 3.91018,-1.13688c1.22875,0 2.35989,0.26987 3.39342,0.8096c0.75792,0.40193 1.59049,1.17133 2.4977,2.30822v-2.7044h6.56289zM253.22052,170.31822c0,-1.57326 -0.29858,-2.71014 -0.89573,-3.41064c-0.58567,-0.7005 -1.3321,-1.05076 -2.23931,-1.05076c-0.83831,0 -1.54455,0.35025 -2.11873,1.05076c-0.5627,0.68902 -0.84405,1.84887 -0.84405,3.47954c0,1.45843 0.27561,2.52641 0.82682,3.20394c0.5627,0.66605 1.24598,0.99908 2.04983,0.99908c0.94166,0 1.71107,-0.35025 2.30822,-1.05075c0.60863,-0.70051 0.91295,-1.77423 0.91295,-3.22117z" fill="#000000" stroke-width="0.26458"/><path d="M228.03912,196.07369v-56.375h51.75v56.375z" fill="none" stroke-width="0"/></g></g></svg>