<svg version="1.1" xmlns="http://www.w3.org/2000/svg" xmlns:xlink="http://www.w3.org/1999/xlink" width="51.75" height="56.375" viewBox="0,0,51.75,56.375"><g transform="translate(-228.03911,-139.69869)"><g data-paper-data="{&quot;isPaintingLayer&quot;:true}" fill-rule="nonzero" stroke="none" stroke-linecap="butt" stroke-linejoin="miter" stroke-miterlimit="10" stroke-dasharray="" stroke-dashoffset="0" style="mix-blend-mode: normal"><path d="M260.10482,159.08483l-2.15318,13.62535c-0.04593,0.27561 -0.0689,0.47657 -0.0689,0.60289c0,0.20671 0.05742,0.36748 0.17225,0.48231c0.11484,0.11484 0.28709,0.17226 0.51677,0.17226c0.52825,0 1.1254,-0.23542 1.79145,-0.70625c0.98759,-0.68902 1.79719,-1.68236 2.42879,-2.98001c0.64308,-1.30913 0.96462,-2.88813 0.96462,-4.737c0,-3.03169 -0.87276,-5.42603 -2.61827,-7.18303c-1.73403,-1.75699 -4.06521,-2.63549 -6.99354,-2.63549c-2.15893,0 -4.12837,0.51676 -5.90834,1.55029c-1.76848,1.03353 -3.13504,2.53214 -4.09966,4.49585c-0.95314,1.96371 -1.42971,4.13412 -1.42971,6.51123c0,3.69773 1.03927,6.63181 3.11781,8.80222c2.09002,2.15893 4.78294,3.23839 8.07875,3.23839c1.60771,0 3.15226,-0.26987 4.63365,-0.8096c1.49287,-0.53973 2.92259,-1.34359 4.28915,-2.41157h3.53122c-0.94166,1.11391 -1.83738,1.98667 -2.68717,2.61827c-1.25172,0.93018 -2.7044,1.6881 -4.35804,2.27377c-1.65365,0.58567 -3.43361,0.8785 -5.3399,0.8785c-2.65272,0 -5.03558,-0.61438 -7.14857,-1.84313c-2.11299,-1.22875 -3.76664,-2.98001 -4.96094,-5.25377c-1.18282,-2.27376 -1.77422,-4.7772 -1.77422,-7.51031c0,-2.87091 0.61438,-5.4777 1.84313,-7.82036c1.24023,-2.35415 2.8824,-4.15709 4.92649,-5.4088c2.04409,-1.25172 4.46714,-1.87758 7.26915,-1.87758c3.61735,0 6.55716,1.14837 8.81945,3.4451c2.27376,2.29673 3.41064,5.26525 3.41064,8.90557c0,2.15893 -0.44212,4.13411 -1.32636,5.92556c-0.88424,1.79145 -2.18189,3.20968 -3.89296,4.25469c-1.32062,0.80386 -2.56085,1.20579 -3.7207,1.20579c-0.68902,0 -1.25172,-0.16077 -1.6881,-0.48232c-0.43638,-0.32154 -0.75792,-0.83256 -0.96463,-1.53306c-0.7694,0.74643 -1.46991,1.27468 -2.10151,1.58474c-0.6316,0.29857 -1.31488,0.44786 -2.04983,0.44786c-1.52733,0 -2.8422,-0.63734 -3.94463,-1.91203c-1.10243,-1.27468 -1.65365,-3.10058 -1.65365,-5.4777c0,-2.81349 0.70624,-5.35712 2.11873,-7.63088c1.41249,-2.27377 3.16375,-3.41065 5.25377,-3.41065c0.81534,0 1.53307,0.18948 2.15319,0.56844c0.6316,0.37896 1.2632,1.03927 1.8948,1.98094l0.31006,-1.94648zM248.63265,170.36752c0,1.36655 0.29283,2.42879 0.8785,3.18671c0.43638,0.5627 0.99334,0.84405 1.67087,0.84405c0.73495,0 1.401,-0.31006 1.99815,-0.93017c0.59715,-0.6316 1.11966,-1.88332 1.56752,-3.75516c0.44786,-1.87183 0.67179,-3.55419 0.67179,-5.04706c0,-1.1254 -0.24116,-1.97519 -0.72347,-2.54937c-0.48231,-0.57418 -1.0565,-0.86127 -1.72255,-0.86127c-0.75792,0 -1.42397,0.28709 -1.99815,0.86127c-0.7694,0.76941 -1.35507,1.99242 -1.757,3.66903c-0.39044,1.66513 -0.58567,3.19245 -0.58567,4.58197z" fill="#000000" stroke-width="0.26458"/><path d="M228.03912,196.07369v-56.375h51.75v56.375z" fill="none" stroke-width="0"/></g></g></svg>