<svg version="1.1" xmlns="http://www.w3.org/2000/svg" xmlns:xlink="http://www.w3.org/1999/xlink" width="51.75" height="56.375" viewBox="0,0,51.75,56.375"><g transform="translate(-228.03911,-139.69869)"><g data-paper-data="{&quot;isPaintingLayer&quot;:true}" fill-rule="nonzero" stroke="none" stroke-linecap="butt" stroke-linejoin="miter" stroke-miterlimit="10" stroke-dasharray="" stroke-dashoffset="0" style="mix-blend-mode: normal"><path d="M259.95389,167.27435l5.4777,1.22301c-0.28709,1.01056 -0.5627,1.82016 -0.82682,2.42879c-0.26413,0.60863 -0.63735,1.32636 -1.11966,2.15318l2.6355,1.80868c0.32154,0.20671 0.73495,0.4536 1.24023,0.74069l-3.77238,4.34082c-0.68902,-0.36747 -1.40675,-0.79237 -2.15318,-1.27468c-0.73495,-0.48231 -1.39526,-0.89573 -1.98093,-1.24024c-1.21727,0.80386 -2.43453,1.38953 -3.6518,1.757c-1.6881,0.50528 -3.60587,0.75792 -5.75331,0.75792c-3.36471,0 -5.86815,-0.7005 -7.51031,-2.1015c-1.64216,-1.40101 -2.46324,-3.10059 -2.46324,-5.09874c0,-1.43546 0.48231,-2.79053 1.44694,-4.06522c0.96463,-1.28617 2.54363,-2.37137 4.737,-3.25561c-0.91869,-1.11391 -1.55029,-2.07854 -1.8948,-2.89388c-0.34451,-0.82683 -0.51676,-1.66513 -0.51676,-2.51492c0,-1.79145 0.68328,-3.2671 2.04983,-4.42695c1.36655,-1.15985 3.43935,-1.73977 6.2184,-1.73977c2.83646,0 4.92074,0.55121 6.25284,1.65364c1.33211,1.10243 1.99816,2.42305 1.99816,3.96186c0,0.86127 -0.20671,1.6881 -0.62012,2.48047c-0.40193,0.79237 -0.88998,1.43546 -1.46416,1.92925c-0.57419,0.4938 -1.60197,1.22875 -3.08336,2.20486c1.22875,1.22875 2.50917,2.37138 3.84128,3.42787c0.35599,-0.71199 0.66031,-1.46416 0.91295,-2.25653zM251.89235,162.84739c0.90721,-0.49379 1.60772,-1.02778 2.10151,-1.60197c0.4938,-0.58567 0.7407,-1.13688 0.7407,-1.65364c0,-0.53973 -0.20671,-0.99334 -0.62012,-1.36082c-0.41341,-0.37896 -0.98185,-0.56844 -1.70532,-0.56844c-0.71199,0 -1.29191,0.20671 -1.73977,0.62012c-0.44787,0.41341 -0.6718,0.90147 -0.6718,1.46416c0,0.71199 0.6316,1.74552 1.8948,3.10059zM249.39467,168.97967c-0.96463,0.67753 -1.60771,1.25746 -1.92925,1.73977c-0.31006,0.48231 -0.46509,0.99334 -0.46509,1.53307c0,0.83831 0.36173,1.58474 1.0852,2.23931c0.72347,0.65457 1.66513,0.98185 2.82498,0.98185c1.25172,0 2.65847,-0.48805 4.22025,-1.46416c-1.49288,-1.14837 -3.40491,-2.82498 -5.73609,-5.02984z" fill="#000000" stroke-width="0.26458"/><path d="M228.03912,196.07369v-56.375h51.75v56.375z" fill="none" stroke-width="0"/></g></g></svg>