<svg version="1.1" xmlns="http://www.w3.org/2000/svg" xmlns:xlink="http://www.w3.org/1999/xlink" width="51.75" height="56.375" viewBox="0,0,51.75,56.375"><g transform="translate(-228.03912,-139.69869)"><g data-paper-data="{&quot;isPaintingLayer&quot;:true}" fill-rule="nonzero" stroke="none" stroke-linecap="butt" stroke-linejoin="miter" stroke-miterlimit="10" stroke-dasharray="" stroke-dashoffset="0" style="mix-blend-mode: normal"><path d="M240.04413,154.73638h12.97077c2.82499,0 4.93799,0.67179 6.339,2.01538c1.41249,1.34359 2.11873,3.25562 2.11873,5.73608c0,2.54937 -0.76941,4.54178 -2.30823,5.97724c-1.52731,1.43546 -3.86424,2.15318 -7.01077,2.15318h-4.27191v9.37066h-7.83759zM247.88172,165.50231h1.91204c1.50435,0 2.56084,-0.25838 3.16947,-0.77515c0.60863,-0.52825 0.91294,-1.20004 0.91294,-2.01538c0,-0.79237 -0.26411,-1.46417 -0.79234,-2.01538c-0.52825,-0.55122 -1.5216,-0.82682 -2.98003,-0.82682h-2.22208z" fill="#000000" stroke-width="0.26458"/><path d="M228.03913,196.07369v-56.375h51.75v56.375z" fill="none" stroke-width="0"/></g></g></svg>