<svg version="1.1" xmlns="http://www.w3.org/2000/svg" xmlns:xlink="http://www.w3.org/1999/xlink" width="51.75" height="56.375" viewBox="0,0,51.75,56.375"><g transform="translate(-228.03912,-139.69869)"><g data-paper-data="{&quot;isPaintingLayer&quot;:true}" fill-rule="nonzero" stroke="none" stroke-linecap="butt" stroke-linejoin="miter" stroke-miterlimit="10" stroke-dasharray="" stroke-dashoffset="0" style="mix-blend-mode: normal"><path d="M240.04665,154.65796h11.59275c2.28525,0 4.12837,0.31006 5.52938,0.93018c1.41249,0.62012 2.57808,1.5101 3.49677,2.66995c0.91869,1.15985 1.58474,2.50918 1.99816,4.04799c0.41341,1.53881 0.62012,3.16949 0.62012,4.89204c0,2.69866 -0.31006,4.79442 -0.93018,6.2873c-0.60863,1.48139 -1.45842,2.72737 -2.54937,3.73793c-1.09095,0.99908 -2.26228,1.66513 -3.514,1.99816c-1.71106,0.45934 -3.26136,0.68902 -4.65088,0.68902h-11.59275zM247.84979,160.37682v13.79761h1.91203c1.63068,0 2.79053,-0.178 3.47955,-0.53399c0.68902,-0.36748 1.22875,-0.99908 1.61919,-1.8948c0.39044,-0.90721 0.58567,-2.37137 0.58567,-4.3925c0,-2.67569 -0.43638,-4.50733 -1.30914,-5.49493c-0.87276,-0.98759 -2.3197,-1.48139 -4.34082,-1.48139z" fill="#000000" stroke-width="0.26458"/><path d="M228.03913,196.07369v-56.375h51.75v56.375z" fill="none" stroke-width="0"/></g></g></svg>