<svg version="1.1" xmlns="http://www.w3.org/2000/svg" xmlns:xlink="http://www.w3.org/1999/xlink" width="51.75" height="56.375" viewBox="0,0,51.75,56.375"><g transform="translate(-228.03912,-139.69869)"><g data-paper-data="{&quot;isPaintingLayer&quot;:true}" fill-rule="nonzero" stroke="none" stroke-linecap="butt" stroke-linejoin="miter" stroke-miterlimit="10" stroke-dasharray="" stroke-dashoffset="0" style="mix-blend-mode: normal"><path d="M263.48566,175.917c0.97611,0.67753 1.61345,1.10243 1.91203,1.27469c0.44786,0.25264 1.05076,0.54547 1.80868,0.8785l-2.17041,4.37527c-1.09095,-0.52825 -2.17041,-1.15985 -3.23839,-1.8948c-1.06798,-0.72347 -1.81442,-1.26894 -2.23931,-1.63642c-1.72255,0.74644 -3.88147,1.11966 -6.47678,1.11966c-3.83554,0 -6.86148,-0.99908 -9.07783,-2.99723c-2.61827,-2.36563 -3.92741,-5.69015 -3.92741,-9.97355c0,-4.15708 1.14262,-7.38399 3.42787,-9.68072c2.29673,-2.30821 5.50067,-3.46232 9.61182,-3.46232c4.19153,0 7.42418,1.1254 9.69795,3.3762c2.28525,2.25079 3.42787,5.47196 3.42787,9.66349c0,3.73219 -0.91869,6.71794 -2.75608,8.95725zM257.5084,171.92069c0.62012,-1.11391 0.93018,-2.77904 0.93018,-4.99539c0,-2.54937 -0.47657,-4.36953 -1.42971,-5.46048c-0.94166,-1.09095 -2.24506,-1.63642 -3.91018,-1.63642c-1.55029,0 -2.80775,0.55696 -3.77238,1.67087c-0.96463,1.11391 -1.44694,2.85369 -1.44694,5.21932c0,2.75607 0.47083,4.69107 1.41249,5.80498c0.94166,1.11391 2.23357,1.67087 3.87573,1.67087c0.52825,0 1.02779,-0.05168 1.49862,-0.15503c-0.65457,-0.6316 -1.6881,-1.22875 -3.10059,-1.79145l1.22301,-2.80775c0.68902,0.12632 1.22301,0.28135 1.60197,0.46509c0.39044,0.18374 1.14262,0.66605 2.25654,1.44694c0.26412,0.18374 0.55121,0.37322 0.86127,0.56844z" fill="#000000" stroke-width="0.26458"/><path d="M228.03913,196.07369v-56.375h51.75v56.375z" fill="none" stroke-width="0"/></g></g></svg>