<svg version="1.1" xmlns="http://www.w3.org/2000/svg" xmlns:xlink="http://www.w3.org/1999/xlink" width="51.75" height="56.375" viewBox="0,0,51.75,56.375"><g transform="translate(-228.03911,-139.69869)"><g data-paper-data="{&quot;isPaintingLayer&quot;:true}" fill-rule="nonzero" stroke="none" stroke-linecap="butt" stroke-linejoin="miter" stroke-miterlimit="10" stroke-dasharray="" stroke-dashoffset="0" style="mix-blend-mode: normal"><path d="M247.10026,161.65875l-6.63181,-1.18855c0.55122,-2.11299 1.60771,-3.73219 3.16949,-4.85759c1.57326,-1.12539 3.79535,-1.68809 6.66626,-1.68809c3.29581,0 5.67867,0.61437 7.14857,1.84312c1.46991,1.22875 2.20486,2.77331 2.20486,4.63366c0,1.09094 -0.29857,2.07853 -0.89572,2.96278c-0.59715,0.88424 -1.49862,1.65939 -2.7044,2.32544c0.97611,0.24115 1.72255,0.5225 2.23931,0.84404c0.83831,0.51677 1.48713,1.20005 1.94648,2.04984c0.47083,0.83831 0.70624,1.84312 0.70624,3.01445c0,1.46991 -0.3847,2.8824 -1.15411,4.23747c-0.7694,1.34359 -1.87758,2.38286 -3.32452,3.11781c-1.44694,0.72347 -3.34748,1.08521 -5.70163,1.08521c-2.29673,0 -4.11115,-0.26987 -5.44325,-0.8096c-1.32062,-0.53973 -2.41157,-1.32636 -3.27284,-2.35989c-0.84979,-1.04501 -1.50436,-2.35415 -1.96371,-3.92741l7.01077,-0.93017c0.27561,1.41249 0.7005,2.39434 1.27468,2.94555c0.58567,0.53973 1.32636,0.8096 2.22209,0.8096c0.94166,0 1.72255,-0.34451 2.34267,-1.03353c0.6316,-0.68902 0.9474,-1.60771 0.9474,-2.75607c0,-1.17133 -0.30432,-2.07854 -0.91295,-2.72163c-0.59715,-0.64309 -1.41249,-0.96463 -2.44602,-0.96463c-0.55122,0 -1.30914,0.1378 -2.27376,0.41341l0.36174,-5.01261c0.39044,0.0574 0.69476,0.0861 0.91295,0.0861c0.91869,0 1.68235,-0.29283 2.29099,-0.8785c0.62012,-0.58567 0.93017,-1.28043 0.93017,-2.08428c0,-0.76941 -0.22967,-1.38378 -0.68902,-1.84313c-0.45935,-0.45935 -1.09095,-0.68902 -1.8948,-0.68902c-0.82682,0 -1.49862,0.25264 -2.01538,0.75792c-0.51676,0.4938 -0.86701,1.36656 -1.05075,2.61827z" fill="#000000" stroke-width="0.26458"/><path d="M228.03912,196.07369v-56.375h51.75v56.375z" fill="none" stroke-width="0"/></g></g></svg>