<svg version="1.1" xmlns="http://www.w3.org/2000/svg" xmlns:xlink="http://www.w3.org/1999/xlink" width="148.15838" height="116.65" viewBox="0,0,148.15838,116.65"><g transform="translate(-174.41869,-140.175)"><g data-paper-data="{&quot;isPaintingLayer&quot;:true}" fill="#000000" fill-rule="evenodd" stroke="none" stroke-width="1" stroke-linecap="butt" stroke-linejoin="miter" stroke-miterlimit="10" stroke-dasharray="" stroke-dashoffset="0" style="mix-blend-mode: normal"><path d="M300.07081,159.175l0.35,0.7c2.46667,2.03333 4.58333,4.43333 6.35,7.2l0.45,0.65c4.36667,3 8.51667,6.26667 12.45,9.8l0.15,0.7l0.05,0.65c0.73333,0.56667 1.4,1.2 2,1.9l0.6,0.7l0.1,1.3c0.03333,0.7 -0.06667,1.35 -0.3,1.95c-5.93333,2.36667 -11.96667,2.23333 -18.1,-0.4l-0.7,-0.65l-0.4,-0.45c-1.7,0.2 -2.95,-0.23333 -3.75,-1.3c0,-0.23333 0.05,-0.45 0.15,-0.65l0.35,-0.4l0.6,-0.3l3.95,0.25c4.73333,3.5 9.96667,4.15 15.7,1.95l-18.8,-19.15l-0.85,-1.15c-2.8,-2.33333 -4.61667,-4.95 -5.45,-7.85l0.2,-0.25c2.26667,0.8 3.9,2.4 4.9,4.8M289.27081,211.825l-0.1,0.6l-0.55,0.7h-1.05l-0.75,-0.55c-5.93333,-3.5 -12.16667,-6.03333 -18.7,-7.6l-0.25,-0.15c-19.53333,-2.03333 -37.5,1.83333 -53.9,11.6l-0.7,0.65l-1.95,1.95l-1.5,1.3l-0.05,0.65l-0.2,0.7l-0.55,0.7l-0.75,1.25l-0.15,0.65l0.1,1.95l0.45,1.35c0.26667,0.63333 0.35,1.28333 0.25,1.95l-0.3,0.55l-0.8,0.55l-0.9,-0.6l-0.2,-0.5l-0.05,-0.65l-0.2,-0.6l-0.6,-0.7v-0.7v-1.95v-1.3v-1.3l0.5,-0.75c1.36667,-2.86667 3.55,-5.2 6.55,-7c1.53333,-0.9 3.18333,-1.6 4.95,-2.1l0.3,-0.6l0.35,-0.5l0.65,-0.2l1.35,-0.45l0.25,-0.6l0.4,-0.5l0.65,-0.2c7.43333,-3.06667 15,-5.4 22.7,-7l25.3,1.2l1.15,0.15l7.2,1.5l0.7,0.45c3.46667,1.23333 6.65,2.91667 9.55,5.05l0.85,1.05M310.27081,233.225l-13.75,0.65c1.13333,1.3 2.4,2.45 3.8,3.45l1.2,1.15l-0.3,0.55l-0.8,0.55c-3.8,-0.93333 -7.28333,-2.53333 -10.45,-4.8l-0.25,-0.1l-1.3,0.1l0.65,0.65c0.23333,1.06667 0.33333,2.15 0.3,3.25l-0.1,3.95l-0.3,0.55l-0.75,0.55c-3.03333,-2.3 -5.65,-5.03333 -7.85,-8.2c-0.9,-1.3 -1.56667,-2.65 -2,-4.05l-0.85,-0.65l-0.9,-0.65c0.03333,-0.83333 -0.25,-1.56667 -0.85,-2.2c-0.66667,-0.66667 -0.96667,-1.46667 -0.9,-2.4c0,-0.2 0.05,-0.36667 0.15,-0.5c0.26667,-0.3 0.58333,-0.56667 0.95,-0.8l0.9,0.65l0.55,1.2l1.15,1.45l0.2,0.65l0.05,0.65c1.73333,1.9 3.33333,3.98333 4.8,6.25l2.2,3.55l1.05,0.05l0.25,-0.25c0.2,-0.83333 0.06667,-1.56667 -0.4,-2.2c-0.6,-0.76667 -1.05,-1.56667 -1.35,-2.4c0.3,-2.26667 1.96667,-2.76667 5,-1.5l0.85,0.65l0.5,0.4l0.2,0.15l1.1,-0.15l-0.55,-0.7l-0.1,-0.6l12.2,-0.4l-1.35,-0.6l-1.7,-0.5c-5.36667,-3.76667 -10.9,-7.26667 -16.6,-10.5l-0.35,-0.7l-0.1,-0.6l0.1,-0.65l0.15,-0.45l0.25,-0.15l0.6,-0.05h0.45c7.83333,5.23333 15.8,10.31667 23.9,15.25l0.35,0.45M181.82081,168.375c-0.5,9.53333 -1.58333,18.93333 -3.25,28.2c-0.16667,0.83333 -0.23333,1.7 -0.2,2.6l-0.9,1.3c-0.66667,6.23333 -0.95,12.56667 -0.85,19v0.65l1.05,0.65c1.33333,-2.06667 2.36667,-4.25 3.1,-6.55c0.96667,-1.5 2.13333,-2.81667 3.5,-3.95l1.05,1.35c-2.4,4.73333 -5.08333,9.53333 -8.05,14.4l-1.55,0.2c-0.43333,-0.53333 -0.6,-1.18333 -0.5,-1.95l0.05,-0.65l-0.85,-1.3c-0.06667,-15 1.43333,-29.63333 4.5,-43.9c0.7,-3.16667 0.95,-6.45 0.75,-9.85c0.36667,-0.3 0.75,-0.55 1.15,-0.75l0.35,-0.1l0.65,0.65M245.42081,140.175c8.96667,1.86667 12.01667,6.9 9.15,15.1c-1.46667,4.23333 -4.51667,6.23333 -9.15,6c-7.33333,-0.43333 -10.75,-4.16667 -10.25,-11.2c0.4,-5.53333 3.36667,-8.75 8.9,-9.65l1.35,-0.25M220.07081,144.575c8.96667,1.83333 12.01667,6.85 9.15,15.05c-1.46667,4.26667 -4.5,6.26667 -9.1,6c-7.36667,-0.43333 -10.8,-4.16667 -10.3,-11.2c0.4,-5.53333 3.38333,-8.75 8.95,-9.65l1.3,-0.2M227.07081,170.125l0.85,0.65c1.63333,5.06667 4.76667,9.15 9.4,12.25c1.26667,0.1 2.13333,0.66667 2.6,1.7c1.96667,0.96667 3.86667,2.13333 5.7,3.5c0.5,-4.43333 0.65,-9.08333 0.45,-13.95v-1.3l-0.9,-1.35c0.16667,-1.4 -0.03333,-2.73333 -0.6,-4l-0.25,-1.2l1.1,-0.4l0.4,-0.05l0.75,1.25l0.55,0.7l0.2,1.3l0.05,0.65l0.65,0.7c0.26667,6.5 0.35,13.05 0.25,19.65l-0.05,1.3l-0.65,0.65h-1.95l-0.4,-0.7l-0.25,-0.6c-2.13333,-0.5 -3.51667,-1.6 -4.15,-3.3c-1.63333,0.06667 -2.58333,-0.51667 -2.85,-1.75l-1.95,-0.65c-4.03333,-3.4 -7.38333,-7.33333 -10.05,-11.8v-1.3v-0.65l1.1,-1.3M232.27081,237.175c0.26667,2.36667 0.36667,4.76667 0.3,7.2l-0.05,3.95l-0.45,0.65l-0.45,0.65v1.95v1.3l0.6,0.7l0.3,0.6l-0.35,0.55l-0.75,0.55l-1.55,-0.2c-0.93333,-0.7 -1.6,-1.56667 -2,-2.6l-0.6,-1.35c-0.96667,-0.4 -1.68333,-1.05 -2.15,-1.95l-0.25,-0.65c-1.06667,-0.43333 -1.93333,-1.08333 -2.6,-1.95c-1.16667,0.6 -2.05,1.38333 -2.65,2.35l-0.45,0.7c-1.43333,1.36667 -2.8,2.85 -4.1,4.45l-0.9,0.8v0.65v0.65l-0.65,0.65h-1.1c-0.5,-1.86667 -0.45,-3.78333 0.15,-5.75c0.33333,-1.06667 0.43333,-2.21667 0.3,-3.45l0.75,-1.35l0.1,-0.6c-2.43333,0 -5.48333,1.03333 -9.15,3.1c-1.56667,0.9 -2.88333,0.75 -3.95,-0.45c2.53333,-5.16667 5.96667,-9.98333 10.3,-14.45l1.3,-1.3l0.8,-0.3l0.05,-0.15l1.3,0.25l0.65,0.65c-3.73333,3.5 -6.96667,7.41667 -9.7,11.75l-0.55,0.7l1.95,0.2c2.33333,-1.1 4.51667,-2.33333 6.55,-3.7l0.7,-0.1l1.3,0.1l0.65,0.65v2.6v2l-0.7,1.35l-0.2,1.25c1.6,-1.26667 3.23333,-2.85 4.9,-4.75l1.25,-1.35h1.95l1,1.35l0.3,0.6c1.46667,0.4 2.41667,1.28333 2.85,2.65l1.05,0.7l0.7,0.6c1.26667,-2.16667 1.76667,-4.8 1.5,-7.9l-0.2,-3.9c0,-0.23333 0.05,-0.41667 0.15,-0.55c0.26667,-0.3 0.58333,-0.55 0.95,-0.75l0.85,0.65"/></g></g></svg>