<svg version="1.1" xmlns="http://www.w3.org/2000/svg" xmlns:xlink="http://www.w3.org/1999/xlink" width="51.75" height="56.375" viewBox="0,0,51.75,56.375"><g transform="translate(-228.03911,-139.69869)"><g data-paper-data="{&quot;isPaintingLayer&quot;:true}" fill-rule="nonzero" stroke="none" stroke-linecap="butt" stroke-linejoin="miter" stroke-miterlimit="10" stroke-dasharray="" stroke-dashoffset="0" style="mix-blend-mode: normal"><path d="M240.20156,154.41309h7.07967v8.75054c0.7005,-0.73495 1.49288,-1.28617 2.37712,-1.65364c0.89572,-0.36748 1.88332,-0.55122 2.96278,-0.55122c2.22783,0 4.07095,0.80386 5.52938,2.41157c1.45842,1.59623 2.18764,3.89296 2.18764,6.89019c0,1.99816 -0.33303,3.7609 -0.99908,5.28822c-0.66605,1.51585 -1.59049,2.65273 -2.7733,3.41065c-1.17133,0.74644 -2.47473,1.11966 -3.91018,1.11966c-1.22875,0 -2.35415,-0.26413 -3.37619,-0.79238c-0.7694,-0.41341 -1.60771,-1.18855 -2.51492,-2.32544v2.7044h-6.56291zM247.22956,170.46723c0,1.57326 0.29283,2.71588 0.8785,3.42787c0.59715,0.7005 1.34933,1.05075 2.25654,1.05075c0.83831,0 1.53881,-0.34451 2.10151,-1.03352c0.57418,-0.70051 0.86127,-1.87184 0.86127,-3.514c0,-1.44694 -0.28135,-2.50918 -0.84405,-3.18672c-0.55122,-0.67753 -1.22301,-1.0163 -2.01538,-1.0163c-0.95314,0 -1.73403,0.35599 -2.34266,1.06798c-0.59715,0.7005 -0.89573,1.76848 -0.89573,3.20394z" fill="#000000" stroke-width="0.26458"/><path d="M228.03912,196.07369v-56.375h51.75v56.375z" fill="none" stroke-width="0"/></g></g></svg>