<svg version="1.1" xmlns="http://www.w3.org/2000/svg" xmlns:xlink="http://www.w3.org/1999/xlink" width="51.75" height="56.375" viewBox="0,0,51.75,56.375"><g transform="translate(-228.03911,-139.69869)"><g data-paper-data="{&quot;isPaintingLayer&quot;:true}" fill-rule="nonzero" stroke="none" stroke-linecap="butt" stroke-linejoin="miter" stroke-miterlimit="10" stroke-dasharray="" stroke-dashoffset="0" style="mix-blend-mode: normal"><path d="M256.4274,154.22941h7.78592v15.05507c0,1.49287 -0.23541,2.90536 -0.70624,4.23747c-0.45935,1.32062 -1.18856,2.48047 -2.18764,3.47955c-0.98759,0.98759 -2.02687,1.68235 -3.11781,2.08428c-1.51584,0.5627 -3.336,0.84405 -5.46048,0.84405c-1.22875,0 -2.57234,-0.08613 -4.03076,-0.25838c-1.44694,-0.17226 -2.65847,-0.51102 -3.63458,-1.01631c-0.97611,-0.51676 -1.87183,-1.24598 -2.68717,-2.18764c-0.80386,-0.94166 -1.35507,-1.91203 -1.65365,-2.9111c-0.48231,-1.60771 -0.72347,-3.03169 -0.72347,-4.27192v-15.05507h7.78592v15.4168c0,1.37804 0.37896,2.4575 1.13688,3.23839c0.7694,0.7694 1.83164,1.15411 3.18671,1.15411c1.34359,0 2.39434,-0.37896 3.15226,-1.13688c0.7694,-0.7694 1.1541,-1.85461 1.1541,-3.25562z" fill="#000000" stroke-width="0.26458"/><path d="M228.03912,196.07369v-56.375h51.75v56.375z" fill="none" stroke-width="0"/></g></g></svg>