<svg version="1.1" xmlns="http://www.w3.org/2000/svg" xmlns:xlink="http://www.w3.org/1999/xlink" width="51.75" height="56.375" viewBox="0,0,51.75,56.375"><g transform="translate(-228.03911,-139.69869)"><g data-paper-data="{&quot;isPaintingLayer&quot;:true}" fill-rule="nonzero" stroke="none" stroke-linecap="butt" stroke-linejoin="miter" stroke-miterlimit="10" stroke-dasharray="" stroke-dashoffset="0" style="mix-blend-mode: normal"><path d="M260.29838,160.03956l-6.97632,0.86127c-0.18374,-0.97611 -0.4938,-1.66512 -0.93018,-2.06705c-0.42489,-0.40193 -0.95314,-0.6029 -1.58474,-0.6029c-1.13688,0 -2.02112,0.57418 -2.65272,1.72255c-0.45935,0.82683 -0.79811,2.59531 -1.0163,5.30545c0.83831,-0.84979 1.69958,-1.47565 2.58382,-1.87758c0.88424,-0.41341 1.90629,-0.62011 3.06613,-0.62011c2.25079,0 4.15134,0.80385 5.70163,2.41156c1.56178,1.60771 2.34266,3.64606 2.34266,6.11505c0,1.66513 -0.39619,3.18671 -1.18855,4.56475c-0.78089,1.37803 -1.87184,2.42304 -3.27284,3.13503c-1.38952,0.70051 -3.13504,1.05076 -5.23654,1.05076c-2.5264,0 -4.55327,-0.43064 -6.08059,-1.29191c-1.52733,-0.86127 -2.75034,-2.23357 -3.66903,-4.11689c-0.90721,-1.8948 -1.36081,-4.39824 -1.36081,-7.51031c0,-4.55901 0.95888,-7.89501 2.87665,-10.008c1.91777,-2.12447 4.57624,-3.18671 7.9754,-3.18671c2.00964,0 3.59438,0.23541 4.75423,0.70624c1.17133,0.45935 2.1417,1.13688 2.9111,2.03261c0.7694,0.89572 1.35507,2.02112 1.757,3.37619zM247.37927,171.2878c0,1.36655 0.34451,2.44027 1.03353,3.22116c0.68902,0.76941 1.53307,1.15411 2.53214,1.15411c0.91869,0 1.6881,-0.35025 2.30821,-1.05076c0.62012,-0.7005 0.93018,-1.74551 0.93018,-3.13503c0,-1.42397 -0.32154,-2.50918 -0.96463,-3.25562c-0.64308,-0.74643 -1.4412,-1.11965 -2.39434,-1.11965c-0.97611,0 -1.79719,0.36173 -2.46324,1.0852c-0.65457,0.72347 -0.98185,1.757 -0.98185,3.10059z" fill="#000000" stroke-width="0.26458"/><path d="M228.03912,196.07369v-56.375h51.75v56.375z" fill="none" stroke-width="0"/></g></g></svg>