<svg version="1.1" xmlns="http://www.w3.org/2000/svg" xmlns:xlink="http://www.w3.org/1999/xlink" width="51.75" height="56.375" viewBox="0,0,51.75,56.375"><g transform="translate(-228.03911,-139.69869)"><g data-paper-data="{&quot;isPaintingLayer&quot;:true}" fill-rule="nonzero" stroke="none" stroke-linecap="butt" stroke-linejoin="miter" stroke-miterlimit="10" stroke-dasharray="" stroke-dashoffset="0" style="mix-blend-mode: normal"><path d="M240.06758,186.24142v-25.25255h6.5629v2.7044c0.90721,-1.13688 1.73978,-1.90629 2.4977,-2.30822c1.02205,-0.53973 2.15319,-0.8096 3.39342,-0.8096c2.44601,0 4.33507,0.93592 5.66718,2.80775c1.34359,1.87183 2.01538,4.18579 2.01538,6.94187c0,3.04317 -0.72921,5.3686 -2.18764,6.97631c-1.45842,1.59623 -3.30154,2.39435 -5.52937,2.39435c-1.07947,0 -2.06706,-0.18374 -2.96279,-0.55122c-0.88424,-0.36748 -1.67661,-0.91295 -2.37711,-1.63642v8.73332zM247.09557,170.18728c0,1.44694 0.30432,2.52066 0.91295,3.22117c0.60863,0.7005 1.37804,1.05075 2.30822,1.05075c0.81533,0 1.49861,-0.33303 2.04983,-0.99908c0.55121,-0.67753 0.82682,-1.82016 0.82682,-3.42787c0,-1.48139 -0.28709,-2.56659 -0.86127,-3.25561c-0.57419,-0.7005 -1.27469,-1.05076 -2.10151,-1.05076c-0.89573,0 -1.64216,0.35025 -2.23931,1.05076c-0.59715,0.7005 -0.89573,1.83738 -0.89573,3.41064z" fill="#000000" stroke-width="0.26458"/><path d="M228.03912,196.07369v-56.375h51.75v56.375z" fill="none" stroke-width="0"/></g></g></svg>