<svg version="1.1" xmlns="http://www.w3.org/2000/svg" xmlns:xlink="http://www.w3.org/1999/xlink" width="51.75" height="56.375" viewBox="0,0,51.75,56.375"><g transform="translate(-228.03911,-139.69869)"><g data-paper-data="{&quot;isPaintingLayer&quot;:true}" fill-rule="nonzero" stroke="none" stroke-linecap="butt" stroke-linejoin="miter" stroke-miterlimit="10" stroke-dasharray="" stroke-dashoffset="0" style="mix-blend-mode: normal"><path d="M253.73268,162.40551h6.56291v17.27715l0.01723,0.8096c0,1.14836 -0.2469,2.23931 -0.74069,3.27284c-0.48231,1.04501 -1.13114,1.88906 -1.94648,2.53214c-0.80386,0.64309 -1.83164,1.10818 -3.08336,1.39527c-1.24023,0.28709 -2.66421,0.43063 -4.27192,0.43063c-3.67477,0 -6.20117,-0.55121 -7.57921,-1.65364c-1.36655,-1.10243 -2.04983,-2.57808 -2.04983,-4.42695c0,-0.22967 0.01148,-0.53973 0.03445,-0.93017l6.80406,0.77514c0.17225,0.6316 0.43638,1.06798 0.79237,1.30914c0.51676,0.35599 1.16559,0.53399 1.94648,0.53399c1.01056,0 1.76274,-0.26987 2.25654,-0.8096c0.50528,-0.53973 0.75792,-1.48139 0.75792,-2.82498v-2.7733c-0.68902,0.81534 -1.37804,1.40675 -2.06706,1.77422c-1.07946,0.57419 -2.24505,0.86128 -3.49677,0.86128c-2.44602,0 -4.42121,-1.06798 -5.92556,-3.20394c-1.06798,-1.51584 -1.60197,-3.51974 -1.60197,-6.01169c0,-2.84795 0.68902,-5.01836 2.06706,-6.51123c1.37804,-1.49288 3.18097,-2.23931 5.4088,-2.23931c1.42397,0 2.5953,0.24116 3.514,0.72347c0.93017,0.48231 1.79719,1.28043 2.60104,2.39434zM247.13532,171.27664c0,1.32062 0.28135,2.30247 0.84405,2.94555c0.5627,0.63161 1.3034,0.94741 2.22209,0.94741c0.87276,0 1.60197,-0.32729 2.18764,-0.98186c0.59715,-0.66605 0.89573,-1.66512 0.89573,-2.99723c0,-1.3321 -0.31006,-2.3484 -0.93018,-3.04891c-0.62012,-0.71199 -1.37804,-1.06798 -2.27376,-1.06798c-0.89572,0 -1.61345,0.32728 -2.15318,0.98185c-0.52825,0.64309 -0.79237,1.71681 -0.79237,3.22117z" fill="#000000" stroke-width="0.26458"/><path d="M228.03912,196.07369v-56.375h51.75v56.375z" fill="none" stroke-width="0"/></g></g></svg>