<svg version="1.1" xmlns="http://www.w3.org/2000/svg" xmlns:xlink="http://www.w3.org/1999/xlink" width="51.75" height="56.375" viewBox="0,0,51.75,56.375"><g transform="translate(-228.03911,-139.69869)"><g data-paper-data="{&quot;isPaintingLayer&quot;:true}" fill-rule="nonzero" stroke="none" stroke-linecap="butt" stroke-linejoin="miter" stroke-miterlimit="10" stroke-dasharray="" stroke-dashoffset="0" style="mix-blend-mode: normal"><path d="M260.25407,154.27976v25.25255h-6.56291v-2.7044c-0.91869,1.14837 -1.757,1.92351 -2.51492,2.32544c-1.01056,0.52825 -2.13596,0.79238 -3.37619,0.79238c-2.49195,0 -4.39824,-0.9474 -5.71886,-2.84221c-1.30914,-1.8948 -1.96371,-4.19727 -1.96371,-6.90741c0,-3.03169 0.72347,-5.35139 2.17041,-6.9591c1.45842,-1.60771 3.30729,-2.41157 5.5466,-2.41157c1.09095,0 2.07854,0.18374 2.96278,0.55122c0.89572,0.36748 1.6881,0.91869 2.37712,1.65364v-8.75054zM253.22607,170.3339c0,-1.43546 -0.30432,-2.50344 -0.91295,-3.20394c-0.60863,-0.71199 -1.37804,-1.06798 -2.30821,-1.06798c-0.81534,0 -1.49862,0.33877 -2.04983,1.0163c-0.55122,0.67754 -0.82682,1.81442 -0.82682,3.41065c0,1.49287 0.28135,2.58956 0.84405,3.29007c0.57418,0.68901 1.28043,1.03352 2.11873,1.03352c0.89572,0 1.64216,-0.35025 2.23931,-1.05075c0.59715,-0.7005 0.89572,-1.84312 0.89572,-3.42787z" fill="#000000" stroke-width="0.26458"/><path d="M228.03912,196.07369v-56.375h51.75v56.375z" fill="none" stroke-width="0"/></g></g></svg>