<svg version="1.1" xmlns="http://www.w3.org/2000/svg" xmlns:xlink="http://www.w3.org/1999/xlink" width="51.75" height="56.375" viewBox="0,0,51.75,56.375"><g transform="translate(-228.03911,-139.69869)"><g data-paper-data="{&quot;isPaintingLayer&quot;:true}" fill-rule="nonzero" stroke="none" stroke-linecap="butt" stroke-linejoin="miter" stroke-miterlimit="10" stroke-dasharray="" stroke-dashoffset="0" style="mix-blend-mode: normal"><path d="M240.06752,154.61309h7.01077v9.30176c0.95314,-0.98759 1.90055,-1.69384 2.8422,-2.11873c0.94166,-0.4249 2.05557,-0.63734 3.34174,-0.63734c1.90629,0 3.4049,0.57993 4.49585,1.73977c1.10243,1.15985 1.65365,2.93982 1.65365,5.3399v11.62719h-7.04522v-10.05968c0,-1.14836 -0.21245,-1.95796 -0.63734,-2.42879c-0.4249,-0.48231 -1.02205,-0.72347 -1.79145,-0.72347c-0.84979,0 -1.53881,0.32154 -2.06706,0.96463c-0.52825,0.64309 -0.79237,1.79719 -0.79237,3.46232v8.78499h-7.01077z" fill="#000000" stroke-width="0.26458"/><path d="M228.03912,196.07369v-56.375h51.75v56.375z" fill="none" stroke-width="0"/></g></g></svg>