<svg version="1.1" xmlns="http://www.w3.org/2000/svg" xmlns:xlink="http://www.w3.org/1999/xlink" width="51.75" height="56.375" viewBox="0,0,51.75,56.375"><g transform="translate(-228.03911,-139.69869)"><g data-paper-data="{&quot;isPaintingLayer&quot;:true}" fill-rule="nonzero" stroke="none" stroke-linecap="butt" stroke-linejoin="miter" stroke-miterlimit="10" stroke-dasharray="" stroke-dashoffset="0" style="mix-blend-mode: normal"><path d="M254.57413,172.35993l6.66626,0.75792c-0.36748,1.38953 -0.97037,2.59531 -1.80867,3.61735c-0.83831,1.01056 -1.91203,1.79719 -3.22116,2.35989c-1.29765,0.5627 -2.9513,0.84405 -4.96094,0.84405c-1.94074,0 -3.55993,-0.178 -4.85759,-0.53399c-1.28617,-0.36747 -2.39434,-0.95314 -3.32452,-1.757c-0.93018,-0.81534 -1.65939,-1.76848 -2.18764,-2.85943c-0.52825,-1.09095 -0.79237,-2.53789 -0.79237,-4.34082c0,-1.88332 0.32154,-3.45084 0.96463,-4.70255c0.47083,-0.91869 1.11392,-1.73977 1.92925,-2.46325c0.81534,-0.73495 1.65365,-1.28042 2.51492,-1.63642c1.36655,-0.5627 3.11781,-0.84405 5.25377,-0.84405c2.98575,0 5.25951,0.53399 6.82129,1.60197c1.57326,1.06798 2.67569,2.62976 3.30729,4.68532l-6.59736,0.8785c-0.20671,-0.78089 -0.58567,-1.36655 -1.13688,-1.757c-0.53973,-0.40192 -1.26894,-0.60289 -2.18764,-0.60289c-1.15985,0 -2.10151,0.41915 -2.82498,1.25745c-0.71199,0.82683 -1.06798,2.08429 -1.06798,3.77238c0,1.50436 0.35599,2.64698 1.06798,3.42787c0.71199,0.78089 1.61919,1.17133 2.72162,1.17133c0.91869,0 1.6881,-0.23541 2.30822,-0.70624c0.6316,-0.47083 1.10243,-1.1943 1.41249,-2.17041z" fill="#000000" stroke-width="0.26458"/><path d="M228.03912,196.07369v-56.375h51.75v56.375z" fill="none" stroke-width="0"/></g></g></svg>