<svg version="1.1" xmlns="http://www.w3.org/2000/svg" xmlns:xlink="http://www.w3.org/1999/xlink" width="51.75" height="56.375" viewBox="0,0,51.75,56.375"><g transform="translate(-228.03912,-139.69869)"><g data-paper-data="{&quot;isPaintingLayer&quot;:true}" fill-rule="nonzero" stroke="none" stroke-linecap="butt" stroke-linejoin="miter" stroke-miterlimit="10" stroke-dasharray="" stroke-dashoffset="0" style="mix-blend-mode: normal"><path d="M240.11107,179.90851v-25.25255h13.00523c2.41157,0 4.25469,0.20671 5.52938,0.62012c1.27469,0.41341 2.30247,1.18282 3.08336,2.30821c0.78089,1.11392 1.17133,2.47473 1.17133,4.08244c0,1.40101 -0.29857,2.61253 -0.89572,3.63458c-0.59715,1.01056 -1.41823,1.83164 -2.46324,2.46324c-0.66605,0.40193 -1.579,0.73496 -2.73885,0.99908c0.93018,0.31006 1.60771,0.62012 2.03261,0.93018c0.28709,0.20671 0.7005,0.64883 1.24023,1.32636c0.55122,0.67754 0.91869,1.20004 1.10243,1.56752l3.77238,7.32083h-8.81944l-4.16857,-7.71701c-0.52825,-0.99908 -0.99908,-1.6479 -1.41249,-1.94648c-0.5627,-0.39044 -1.20004,-0.58567 -1.91203,-0.58567h-0.68902v10.24916zM247.94866,164.8879h3.29007c0.35599,0 1.04501,-0.11484 2.06706,-0.34451c0.51676,-0.10335 0.93592,-0.36748 1.25746,-0.79237c0.33303,-0.42489 0.49954,-0.91295 0.49954,-1.46416c0,-0.81534 -0.25838,-1.4412 -0.77514,-1.87758c-0.51677,-0.43638 -1.48713,-0.65457 -2.91111,-0.65457h-3.42787z" fill="#000000" stroke-width="0.26458"/><path d="M228.03913,196.07369v-56.375h51.75v56.375z" fill="none" stroke-width="0"/></g></g></svg>