<svg version="1.1" xmlns="http://www.w3.org/2000/svg" xmlns:xlink="http://www.w3.org/1999/xlink" width="51.75" height="56.375" viewBox="0,0,51.75,56.375"><g transform="translate(-228.03912,-139.69869)"><g data-paper-data="{&quot;isPaintingLayer&quot;:true}" fill-rule="nonzero" stroke="none" stroke-linecap="butt" stroke-linejoin="miter" stroke-miterlimit="10" stroke-dasharray="" stroke-dashoffset="0" style="mix-blend-mode: normal"><path d="M240.15422,161.57193h6.52846v2.98001c0.97611,-1.21727 1.9637,-2.08428 2.96278,-2.60104c0.99908,-0.52825 2.21635,-0.79237 3.6518,-0.79237c1.94073,0 3.45658,0.57993 4.54753,1.73977c1.10243,1.14836 1.65364,2.92833 1.65364,5.3399v11.62719h-7.04522v-10.05968c0,-1.14836 -0.21245,-1.95796 -0.63734,-2.42879c-0.42489,-0.48231 -1.02204,-0.72347 -1.79145,-0.72347c-0.84979,0 -1.53881,0.32154 -2.06706,0.96463c-0.52825,0.64309 -0.79237,1.79719 -0.79237,3.46232v8.78499h-7.01077z" fill="#000000" stroke-width="0.26458"/><path d="M228.03913,196.07369v-56.375h51.75v56.375z" fill="none" stroke-width="0"/></g></g></svg>