<svg version="1.1" xmlns="http://www.w3.org/2000/svg" xmlns:xlink="http://www.w3.org/1999/xlink" width="51.75" height="56.375" viewBox="0,0,51.75,56.375"><g transform="translate(-228.03911,-139.69869)"><g data-paper-data="{&quot;isPaintingLayer&quot;:true}" fill-rule="nonzero" stroke="none" stroke-linecap="butt" stroke-linejoin="miter" stroke-miterlimit="10" stroke-dasharray="" stroke-dashoffset="0" style="mix-blend-mode: normal"><path d="M249.79472,161.57218h3.34174v5.13319h-3.34174v13.16026h-7.028v-13.16026h-2.61827v-5.13319h2.61827v-0.82682c0,-0.74644 0.08039,-1.56752 0.24116,-2.46324c0.16077,-0.89573 0.45935,-1.62494 0.89572,-2.18764c0.44786,-0.57418 1.06798,-1.03353 1.86035,-1.37804c0.80386,-0.35599 1.97519,-0.53399 3.514,-0.53399c1.22875,0 3.01446,0.14355 5.35712,0.43064l-0.77515,4.23747c-0.83831,-0.1378 -1.51584,-0.20671 -2.03261,-0.20671c-0.6316,0 -1.0852,0.10909 -1.36081,0.32728c-0.27561,0.20671 -0.47083,0.53973 -0.58567,0.99908c-0.05742,0.25264 -0.08613,0.78663 -0.08613,1.60197z" fill="#000000" stroke-width="0.26458"/><path d="M228.03912,196.07369v-56.375h51.75v56.375z" fill="none" stroke-width="0"/></g></g></svg>