<svg version="1.1" xmlns="http://www.w3.org/2000/svg" xmlns:xlink="http://www.w3.org/1999/xlink" width="51.75" height="56.375" viewBox="0,0,51.75,56.375"><g transform="translate(-228.03911,-139.69869)"><g data-paper-data="{&quot;isPaintingLayer&quot;:true}" fill-rule="nonzero" stroke="none" stroke-linecap="butt" stroke-linejoin="miter" stroke-miterlimit="10" stroke-dasharray="" stroke-dashoffset="0" style="mix-blend-mode: normal"><path d="M240.12831,166.87807c0,-4.80017 0.86127,-8.15913 2.58382,-10.0769c1.73403,-1.91777 4.36953,-2.87665 7.9065,-2.87665c1.69958,0 3.09484,0.21245 4.18579,0.63734c1.09095,0.41341 1.98093,0.95889 2.66995,1.63642c0.68902,0.66605 1.22875,1.3723 1.61919,2.11873c0.40193,0.73495 0.72347,1.59623 0.96463,2.58382c0.47083,1.88332 0.70624,3.84703 0.70624,5.89112c0,4.58197 -0.77515,7.9352 -2.32544,10.05967c-1.55029,2.12448 -4.22023,3.18672 -8.00984,3.18672c-2.12448,0 -3.84129,-0.33877 -5.15042,-1.0163c-1.30914,-0.67754 -2.38286,-1.67088 -3.22116,-2.98001c-0.60863,-0.93018 -1.08521,-2.19912 -1.42972,-3.80683c-0.33303,-1.61919 -0.49954,-3.4049 -0.49954,-5.35713zM247.08741,166.89527c0,3.21542 0.28135,5.41454 0.84404,6.59735c0.57419,1.17133 1.40101,1.757 2.48047,1.757c0.71199,0 1.32636,-0.2469 1.84313,-0.74069c0.52825,-0.50528 0.91295,-1.29765 1.1541,-2.37712c0.25265,-1.07946 0.37897,-2.76181 0.37897,-5.04706c0,-3.35323 -0.28709,-5.60402 -0.86128,-6.75239c-0.5627,-1.15985 -1.41249,-1.73977 -2.54937,-1.73977c-1.15985,0 -1.99815,0.59141 -2.51492,1.77422c-0.51676,1.17133 -0.77514,3.34749 -0.77514,6.52846z" fill="#000000" stroke-width="0.26458"/><path d="M228.03912,196.07369v-56.375h51.75v56.375z" fill="none" stroke-width="0"/></g></g></svg>