<svg version="1.1" xmlns="http://www.w3.org/2000/svg" xmlns:xlink="http://www.w3.org/1999/xlink" width="51.75" height="56.375" viewBox="0,0,51.75,56.375"><g transform="translate(-228.03911,-139.69869)"><g data-paper-data="{&quot;isPaintingLayer&quot;:true}" fill-rule="nonzero" stroke="none" stroke-linecap="butt" stroke-linejoin="miter" stroke-miterlimit="10" stroke-dasharray="" stroke-dashoffset="0" style="mix-blend-mode: normal"><path d="M259.92099,163.07982v5.61552c-1.32062,1.05648 -2.3886,1.76272 -3.20394,2.11873c-0.81534,0.35599 -1.65939,0.53398 -2.53214,0.53398c-0.66605,0 -1.33785,-0.09761 -2.01538,-0.29284c-0.66605,-0.19521 -1.71681,-0.65456 -3.15226,-1.37803c-1.42397,-0.72348 -2.54937,-1.08522 -3.37619,-1.08522c-1.76848,0 -3.59438,0.9187 -5.4777,2.75609v-5.66719c1.06798,-0.95313 2.06706,-1.63067 2.99723,-2.03261c0.93018,-0.40192 1.94648,-0.60288 3.04891,-0.60288c0.5627,0 1.15411,0.09187 1.77422,0.27562c0.62012,0.17224 1.52733,0.55119 2.72163,1.13686c1.20578,0.58566 2.06132,0.95314 2.5666,1.10244c0.50528,0.14929 0.98185,0.22394 1.42971,0.22394c1.53881,0 3.27858,-0.90147 5.21932,-2.70441z" fill="#000000" stroke-width="0.26458"/><path d="M228.03912,196.07369v-56.375h51.75v56.375z" fill="none" stroke-width="0"/></g></g></svg>