<svg version="1.1" xmlns="http://www.w3.org/2000/svg" xmlns:xlink="http://www.w3.org/1999/xlink" width="51.75" height="56.375" viewBox="0,0,51.75,56.375"><g transform="translate(-228.03911,-139.69869)"><g data-paper-data="{&quot;isPaintingLayer&quot;:true}" fill-rule="nonzero" stroke="none" stroke-linecap="butt" stroke-linejoin="miter" stroke-miterlimit="10" stroke-dasharray="" stroke-dashoffset="0" style="mix-blend-mode: normal"><path d="M244.18979,153.77978h7.028v4.82313h-7.028zM244.18979,160.73886h7.028v17.74224c0,2.26228 -0.16651,3.86425 -0.49954,4.80591c-0.32154,0.94166 -0.92443,1.70532 -1.80868,2.29098c-0.88424,0.58567 -2.14744,0.8785 -3.7896,0.8785c-1.35507,0 -3.03743,-0.20096 -5.04706,-0.60289l1.05075,-5.09874c0.5627,0.11483 0.97611,0.17225 1.24023,0.17225c0.59715,0 1.05076,-0.2067 1.36081,-0.62011c0.31006,-0.40193 0.46509,-1.21152 0.46509,-2.42879z" fill="#000000" stroke-width="0.26458"/><path d="M228.03912,196.07369v-56.375h51.75v56.375z" fill="none" stroke-width="0"/></g></g></svg>