<svg version="1.1" xmlns="http://www.w3.org/2000/svg" xmlns:xlink="http://www.w3.org/1999/xlink" width="51.75" height="56.375" viewBox="0,0,51.75,56.375"><g transform="translate(-228.03911,-139.69869)"><g data-paper-data="{&quot;isPaintingLayer&quot;:true}" fill-rule="nonzero" stroke="none" stroke-linecap="butt" stroke-linejoin="miter" stroke-miterlimit="10" stroke-dasharray="" stroke-dashoffset="0" style="mix-blend-mode: normal"><path d="M261.59604,153.01581h3.63457l-14.58998,26.97509h-3.60012zM240.15032,159.64761c0,-1.17133 0.25264,-2.28525 0.75792,-3.34175c0.51676,-1.05649 1.29765,-1.86609 2.34267,-2.42879c1.0565,-0.57418 2.30247,-0.86127 3.73793,-0.86127c2.11299,0 3.77812,0.60289 4.99539,1.80867c1.21726,1.20579 1.8259,2.8135 1.8259,4.82314c0,2.02112 -0.60863,3.63457 -1.8259,4.84035c-1.21727,1.20579 -2.8824,1.80868 -4.99539,1.80868c-1.43546,0 -2.68143,-0.28135 -3.73793,-0.84405c-1.04501,-0.57418 -1.8259,-1.38952 -2.34267,-2.44602c-0.50528,-1.05649 -0.75792,-2.17615 -0.75792,-3.35896zM244.99068,159.682c0,1.42397 0.22967,2.45749 0.68902,3.10058c0.29858,0.42489 0.73495,0.63734 1.30914,0.63734c0.57418,0 1.00482,-0.21245 1.29191,-0.63734c0.45935,-0.64309 0.68902,-1.67661 0.68902,-3.10058c0,-1.41249 -0.22967,-2.44602 -0.68902,-3.10059c-0.28709,-0.41341 -0.71773,-0.62012 -1.29191,-0.62012c-0.57418,0 -1.01056,0.20671 -1.30914,0.62012c-0.45934,0.64309 -0.68902,1.67662 -0.68902,3.10059zM258.35765,173.30736c0,-1.18282 0.25264,-2.29674 0.75792,-3.34175c0.50528,-1.05649 1.28617,-1.87183 2.34267,-2.44601c1.05649,-0.57418 2.29673,-0.86127 3.7207,-0.86127c2.12447,0 3.79534,0.60863 5.01261,1.8259c1.21727,1.20578 1.8259,2.81349 1.8259,4.82313c0,2.00964 -0.60863,3.62309 -1.8259,4.84036c-1.21727,1.20578 -2.88814,1.80867 -5.01261,1.80867c-1.42397,0 -2.66421,-0.28709 -3.7207,-0.86127c-1.0565,-0.57419 -1.83739,-1.38379 -2.34267,-2.4288c-0.50528,-1.05649 -0.75792,-2.17615 -0.75792,-3.35896zM263.19801,173.34174c0,1.42397 0.22967,2.4575 0.68902,3.10058c0.28709,0.41341 0.71772,0.62012 1.29191,0.62012c0.57418,0 1.01056,-0.20671 1.30913,-0.62012c0.45935,-0.64308 0.68902,-1.67661 0.68902,-3.10058c0,-1.42397 -0.22967,-2.46324 -0.68902,-3.11781c-0.29857,-0.41341 -0.73495,-0.62012 -1.30913,-0.62012c-0.57419,0 -1.00482,0.21245 -1.29191,0.63734c-0.45935,0.64309 -0.68902,1.67662 -0.68902,3.10059z" fill="#000000" stroke-width="0.26458"/><path d="M228.03912,196.07369v-56.375h51.75v56.375z" fill="none" stroke-width="0"/></g></g></svg>