<svg version="1.1" xmlns="http://www.w3.org/2000/svg" xmlns:xlink="http://www.w3.org/1999/xlink" width="51.75" height="56.375" viewBox="0,0,51.75,56.375"><g transform="translate(-228.03912,-139.69869)"><g data-paper-data="{&quot;isPaintingLayer&quot;:true}" fill-rule="nonzero" stroke="none" stroke-linecap="butt" stroke-linejoin="miter" stroke-miterlimit="10" stroke-dasharray="" stroke-dashoffset="0" style="mix-blend-mode: normal"><path d="M240.02256,174.57021l6.9591,-0.65457c0.28709,0.82683 0.68901,1.41824 1.20576,1.77423c0.51677,0.35599 1.20579,0.53399 2.06706,0.53399c0.94167,0 1.67088,-0.20096 2.18765,-0.60289c0.40192,-0.29857 0.60288,-0.67179 0.60288,-1.11966c0,-0.50528 -0.26412,-0.89572 -0.79237,-1.17133c-0.37895,-0.19522 -1.38377,-0.43638 -3.01445,-0.72347c-2.43454,-0.42489 -4.12838,-0.81534 -5.08151,-1.17133c-0.94167,-0.36748 -1.73979,-0.98186 -2.39435,-1.84313c-0.64308,-0.86127 -0.96462,-1.84313 -0.96462,-2.94556c0,-1.20578 0.35025,-2.24505 1.05074,-3.11781c0.70051,-0.87276 1.66514,-1.52158 2.89388,-1.94648c1.22876,-0.43638 2.87667,-0.65457 4.94372,-0.65457c2.18189,0 3.78961,0.16651 4.82314,0.49954c1.04501,0.33303 1.91203,0.84979 2.60104,1.55029c0.70051,0.7005 1.28043,1.6479 1.73977,2.8422l-6.64904,0.65457c-0.17224,-0.58567 -0.45933,-1.0163 -0.86127,-1.29191c-0.55121,-0.36748 -1.21727,-0.55121 -1.99816,-0.55121c-0.79237,0 -1.3723,0.14355 -1.73977,0.43064c-0.35599,0.27561 -0.53398,0.61438 -0.53398,1.0163c0,0.44786 0.22967,0.78663 0.689,1.01631c0.45935,0.22967 1.45844,0.43638 2.99726,0.62011c2.33117,0.26413 4.0652,0.6316 5.20208,1.10243c1.13687,0.47083 2.00389,1.14263 2.60106,2.01539c0.60863,0.87275 0.91295,1.83164 0.91295,2.87665c0,1.05649 -0.32155,2.08428 -0.96465,3.08336c-0.63159,0.99908 -1.63641,1.79719 -3.01445,2.39434c-1.36655,0.58567 -3.23264,0.8785 -5.59826,0.8785c-3.34176,0 -5.72463,-0.47657 -7.1486,-1.42971c-1.41249,-0.95315 -2.31969,-2.30822 -2.72161,-4.06522z" fill="#000000" stroke-width="0.26458"/><path d="M228.03913,196.07369v-56.375h51.75v56.375z" fill="none" stroke-width="0"/></g></g></svg>