<svg version="1.1" xmlns="http://www.w3.org/2000/svg" xmlns:xlink="http://www.w3.org/1999/xlink" width="51.75" height="56.375" viewBox="0,0,51.75,56.375"><g transform="translate(-228.03911,-139.69869)"><g data-paper-data="{&quot;isPaintingLayer&quot;:true}" fill-rule="nonzero" stroke="none" stroke-linecap="butt" stroke-linejoin="miter" stroke-miterlimit="10" stroke-dasharray="" stroke-dashoffset="0" style="mix-blend-mode: normal"><path d="M259.40013,179.57954h-6.54568v-2.96278c-0.97611,1.21727 -1.9637,2.08428 -2.96278,2.60105c-0.98759,0.51676 -2.20486,0.77514 -3.6518,0.77514c-1.92925,0 -3.44509,-0.57418 -4.54752,-1.72254c-1.09095,-1.15985 -1.63642,-2.93982 -1.63642,-5.3399v-11.64442h7.04522v10.05967c0,1.14837 0.21245,1.96371 0.63734,2.44602c0.42489,0.48231 1.02204,0.72347 1.79145,0.72347c0.83831,0 1.52158,-0.32154 2.04983,-0.96462c0.53973,-0.64309 0.8096,-1.79719 0.8096,-3.46232v-8.80222h7.01077z" fill="#000000" stroke-width="0.26458"/><path d="M228.03912,196.07369v-56.375h51.75v56.375z" fill="none" stroke-width="0"/></g></g></svg>