<svg version="1.1" xmlns="http://www.w3.org/2000/svg" xmlns:xlink="http://www.w3.org/1999/xlink" width="51.75" height="56.375" viewBox="0,0,51.75,56.375"><g transform="translate(-228.03912,-139.69869)"><g data-paper-data="{&quot;isPaintingLayer&quot;:true}" fill-rule="nonzero" stroke="none" stroke-linecap="butt" stroke-linejoin="miter" stroke-miterlimit="10" stroke-dasharray="" stroke-dashoffset="0" style="mix-blend-mode: normal"><path d="M252.62853,154.17222h7.82036v13.72871c0,2.8824 -0.25838,5.07577 -0.77514,6.58013c-0.50528,1.50436 -1.53307,2.77904 -3.08336,3.82406c-1.53881,1.04501 -3.514,1.56752 -5.92557,1.56752c-2.54937,0 -4.52455,-0.34451 -5.92556,-1.03353c-1.40101,-0.68902 -2.48621,-1.69384 -3.25562,-3.01446c-0.75792,-1.3321 -1.20578,-2.97427 -1.34358,-4.92649l7.45863,-1.0163c0.01147,1.11391 0.10908,1.94074 0.29283,2.48047c0.18374,0.53973 0.4938,0.97611 0.93018,1.30914c0.29857,0.21819 0.72347,0.32728 1.27468,0.32728c0.87276,0 1.5101,-0.32154 1.91203,-0.96463c0.41341,-0.65457 0.62012,-1.75126 0.62012,-3.29007z" fill="#000000" stroke-width="0.26458"/><path d="M228.03913,196.07369v-56.375h51.75v56.375z" fill="none" stroke-width="0"/></g></g></svg>