<svg version="1.1" xmlns="http://www.w3.org/2000/svg" xmlns:xlink="http://www.w3.org/1999/xlink" width="51.75" height="56.375" viewBox="0,0,51.75,56.375"><g transform="translate(-228.03911,-139.69869)"><g data-paper-data="{&quot;isPaintingLayer&quot;:true}" fill-rule="nonzero" stroke="none" stroke-linecap="butt" stroke-linejoin="miter" stroke-miterlimit="10" stroke-dasharray="" stroke-dashoffset="0" style="mix-blend-mode: normal"><path d="M244.3387,165.97688c-1.10243,-0.58567 -1.90629,-1.24024 -2.41157,-1.96371c-0.68902,-0.98759 -1.03353,-2.12447 -1.03353,-3.41064c0,-2.11299 0.99334,-3.84128 2.98001,-5.18487c1.55029,-1.03353 3.60012,-1.55029 6.1495,-1.55029c3.37619,0 5.86815,0.64308 7.47586,1.92925c1.61919,1.28617 2.42879,2.90536 2.42879,4.85758c0,1.13688 -0.32154,2.19912 -0.96462,3.18672c-0.48231,0.73495 -1.24024,1.44694 -2.27376,2.13596c1.36656,0.65457 2.38286,1.52158 3.04891,2.60104c0.67753,1.07947 1.0163,2.27377 1.0163,3.5829c0,1.2632 -0.29283,2.44602 -0.8785,3.54845c-0.57418,1.09095 -1.28617,1.93499 -2.13596,2.53214c-0.83831,0.59715 -1.88906,1.03353 -3.15226,1.30914c-1.25172,0.28709 -2.58956,0.43064 -4.01354,0.43064c-2.67569,0 -4.71978,-0.3158 -6.13227,-0.9474c-1.41249,-0.6316 -2.48621,-1.56178 -3.22116,-2.79053c-0.73495,-1.22875 -1.10243,-2.60105 -1.10243,-4.11689c0,-1.48139 0.34451,-2.7331 1.03353,-3.75515c0.68902,-1.03353 1.75126,-1.83165 3.18671,-2.39434zM247.49096,161.01594c0,0.87276 0.26987,1.579 0.8096,2.11873c0.55122,0.52825 1.28043,0.79237 2.18764,0.79237c0.80386,0 1.46417,-0.26412 1.98093,-0.79237c0.51676,-0.52825 0.77515,-1.21152 0.77515,-2.04983c0,-0.87276 -0.26987,-1.579 -0.8096,-2.11873c-0.53973,-0.55122 -1.22875,-0.82683 -2.06706,-0.82683c-0.84979,0 -1.54455,0.26987 -2.08428,0.8096c-0.52825,0.52825 -0.79237,1.21727 -0.79237,2.06706zM247.112,171.88522c0,1.11391 0.33877,2.02686 1.01631,2.73885c0.67754,0.7005 1.45268,1.05075 2.32544,1.05075c0.83831,0 1.59049,-0.35599 2.25654,-1.06798c0.66605,-0.72347 0.99908,-1.63642 0.99908,-2.73885c0,-1.11391 -0.33877,-2.02686 -1.0163,-2.73885c-0.66605,-0.71199 -1.4412,-1.06798 -2.32544,-1.06798c-0.87276,0 -1.63642,0.34451 -2.29099,1.03353c-0.64309,0.68902 -0.96463,1.6192 -0.96463,2.79053z" fill="#000000" stroke-width="0.26458"/><path d="M228.03912,196.07369v-56.375h51.75v56.375z" fill="none" stroke-width="0"/></g></g></svg>