<svg version="1.1" xmlns="http://www.w3.org/2000/svg" xmlns:xlink="http://www.w3.org/1999/xlink" width="51.75" height="56.375" viewBox="0,0,51.75,56.375"><g transform="translate(-228.03911,-139.69869)"><g data-paper-data="{&quot;isPaintingLayer&quot;:true}" fill-rule="nonzero" stroke="none" stroke-linecap="butt" stroke-linejoin="miter" stroke-miterlimit="10" stroke-dasharray="" stroke-dashoffset="0" style="mix-blend-mode: normal"><path d="M240.10414,166.95858c0,-4.12263 1.14836,-7.33231 3.44508,-9.62904c2.29673,-2.29673 5.49492,-3.4451 9.59459,-3.4451c4.20301,0 7.44141,1.13114 9.71518,3.39342c2.27376,2.2508 3.41064,5.4088 3.41064,9.47401c0,2.9513 -0.49954,5.37435 -1.49863,7.26915c-0.98758,1.88332 -2.42303,3.35323 -4.30635,4.40972c-1.87184,1.04501 -4.20876,1.56752 -7.01077,1.56752c-2.84794,0 -5.20783,-0.4536 -7.07967,-1.36081c-1.86036,-0.90721 -3.37046,-2.34267 -4.5303,-4.30637c-1.15985,-1.9637 -1.73977,-4.42121 -1.73977,-7.3725zM247.90728,166.99303c0,2.54937 0.47083,4.38101 1.41248,5.49493c0.95313,1.11391 2.24504,1.67087 3.87572,1.67087c1.67661,0 2.97427,-0.54547 3.89298,-1.63642c0.91869,-1.09095 1.37803,-3.04891 1.37803,-5.87389c0,-2.37712 -0.48231,-4.11115 -1.44693,-5.20209c-0.95315,-1.10243 -2.25081,-1.65365 -3.89297,-1.65365c-1.57325,0 -2.83646,0.55696 -3.78961,1.67087c-0.95313,1.11391 -1.4297,2.95704 -1.4297,5.52938z" fill="#000000" stroke-width="0.26458"/><path d="M228.03912,196.07369v-56.375h51.75v56.375z" fill="none" stroke-width="0"/></g></g></svg>