<svg version="1.1" xmlns="http://www.w3.org/2000/svg" xmlns:xlink="http://www.w3.org/1999/xlink" width="51.75" height="56.375" viewBox="0,0,51.75,56.375"><g transform="translate(-228.03911,-139.69869)"><g data-paper-data="{&quot;isPaintingLayer&quot;:true}" fill-rule="nonzero" stroke="none" stroke-linecap="butt" stroke-linejoin="miter" stroke-miterlimit="10" stroke-dasharray="" stroke-dashoffset="0" style="mix-blend-mode: normal"><path d="M240.05517,171.14004l7.42418,-0.46509c0.16077,1.20578 0.48806,2.12448 0.98185,2.75607c0.80386,1.02205 1.95222,1.53307 3.44509,1.53307c1.11391,0 1.96945,-0.25838 2.5666,-0.77515c0.60863,-0.52825 0.91295,-1.13688 0.91295,-1.8259c0,-0.65457 -0.28709,-1.24024 -0.86127,-1.757c-0.57418,-0.51676 -1.90629,-1.00482 -3.99631,-1.46416c-3.42213,-0.76941 -5.8624,-1.79145 -7.32083,-3.06614c-1.46991,-1.27469 -2.20486,-2.89962 -2.20486,-4.87481c0,-1.29765 0.37322,-2.52066 1.11966,-3.66903c0.75792,-1.15985 1.88906,-2.06706 3.39342,-2.72163c1.51584,-0.66605 3.58864,-0.99908 6.2184,-0.99908c3.22691,0 5.68441,0.60289 7.37251,1.80868c1.69958,1.1943 2.71014,3.10059 3.03168,5.71886l-7.35528,0.43064c-0.19522,-1.13688 -0.60863,-1.96371 -1.24023,-2.48047c-0.62012,-0.51677 -1.48139,-0.77515 -2.58382,-0.77515c-0.90721,0 -1.59049,0.19522 -2.04983,0.58567c-0.45935,0.37896 -0.68902,0.84405 -0.68902,1.39526c0,0.40193 0.18948,0.76366 0.56844,1.08521c0.36748,0.33303 1.24023,0.64308 2.61827,0.93017c3.41065,0.73495 5.85092,1.48139 7.32083,2.23931c1.48139,0.74644 2.55511,1.67661 3.22116,2.79053c0.67754,1.11391 1.0163,2.35989 1.0163,3.73793c0,1.6192 -0.44786,3.11207 -1.34359,4.47863c-0.89572,1.36655 -2.14744,2.40582 -3.75515,3.11781c-1.60771,0.7005 -3.63458,1.05075 -6.08059,1.05075c-4.29489,0 -7.26915,-0.82682 -8.9228,-2.48047c-1.65365,-1.65364 -2.58956,-3.75515 -2.80775,-6.30452z" fill="#000000" stroke-width="0.26458"/><path d="M228.03912,196.07369v-56.375h51.75v56.375z" fill="none" stroke-width="0"/></g></g></svg>