<svg version="1.1" xmlns="http://www.w3.org/2000/svg" xmlns:xlink="http://www.w3.org/1999/xlink" width="51.75" height="56.375" viewBox="0,0,51.75,56.375"><g transform="translate(-228.03911,-139.69869)"><g data-paper-data="{&quot;isPaintingLayer&quot;:true}" fill-rule="nonzero" stroke="none" stroke-linecap="butt" stroke-linejoin="miter" stroke-miterlimit="10" stroke-dasharray="" stroke-dashoffset="0" style="mix-blend-mode: normal"><path d="M253.69102,170.4209v-5.25377h12.05783v10.76592c-2.30821,1.57326 -4.3523,2.64698 -6.13227,3.22116c-1.76848,0.5627 -3.86999,0.84405 -6.30452,0.84405c-2.99723,0 -5.44325,-0.51102 -7.33805,-1.53307c-1.88332,-1.02205 -3.34748,-2.54363 -4.3925,-4.56475c-1.03353,-2.02112 -1.55029,-4.34082 -1.55029,-6.95909c0,-2.75608 0.56844,-5.15042 1.70532,-7.18302c1.13688,-2.04409 2.80201,-3.59438 4.99539,-4.65088c1.71106,-0.81534 4.01354,-1.22301 6.90742,-1.22301c2.79053,0 4.87481,0.25264 6.25285,0.75792c1.38952,0.50528 2.53789,1.29191 3.4451,2.35989c0.91869,1.0565 1.60771,2.40008 2.06706,4.03076l-7.52753,1.34359c-0.31006,-0.95314 -0.83831,-1.68235 -1.58474,-2.18764c-0.73495,-0.50528 -1.67661,-0.75792 -2.82498,-0.75792c-1.71106,0 -3.07762,0.59715 -4.09966,1.79145c-1.01056,1.18282 -1.51584,3.06039 -1.51584,5.63273c0,2.73311 0.51102,4.68533 1.53307,5.85666c1.03353,1.17133 2.46898,1.757 4.30637,1.757c0.87276,0 1.70532,-0.12632 2.49769,-0.37896c0.79237,-0.25264 1.69958,-0.68328 2.72163,-1.29191v-2.37712z" fill="#000000" stroke-width="0.26458"/><path d="M228.03912,196.07369v-56.375h51.75v56.375z" fill="none" stroke-width="0"/></g></g></svg>