<svg version="1.1" xmlns="http://www.w3.org/2000/svg" xmlns:xlink="http://www.w3.org/1999/xlink" width="51.75" height="56.375" viewBox="0,0,51.75,56.375"><g transform="translate(-228.03911,-139.69869)"><g data-paper-data="{&quot;isPaintingLayer&quot;:true}" fill-rule="nonzero" stroke="none" stroke-linecap="butt" stroke-linejoin="miter" stroke-miterlimit="10" stroke-dasharray="" stroke-dashoffset="0" style="mix-blend-mode: normal"><path d="M240.55369,173.81552l6.97632,-0.8785c0.18373,0.97611 0.49379,1.66513 0.93017,2.06706c0.43638,0.40193 0.97037,0.60289 1.60197,0.60289c1.1254,0 2.0039,-0.56844 2.6355,-1.70532c0.45935,-0.83831 0.80386,-2.61253 1.03353,-5.32268c-0.83831,0.86128 -1.69958,1.49288 -2.58382,1.89481c-0.88424,0.40193 -1.90629,0.60289 -3.06614,0.60289c-2.26228,0 -4.17431,-0.80386 -5.73608,-2.41157c-1.55029,-1.60771 -2.32544,-3.64032 -2.32544,-6.09782c0,-1.67661 0.39619,-3.20394 1.18856,-4.58197c0.79237,-1.37804 1.88332,-2.41731 3.27284,-3.11781c1.38952,-0.71199 3.13504,-1.06798 5.23654,-1.06798c2.52641,0 4.55327,0.43638 6.08059,1.30913c1.52733,0.86127 2.7446,2.23931 3.65181,4.13412c0.91869,1.88331 1.37803,4.37526 1.37803,7.47585c0,4.55901 -0.95888,7.90076 -2.87665,10.02523c-1.91777,2.11299 -4.57623,3.16949 -7.97539,3.16949c-2.00964,0 -3.59439,-0.22967 -4.75424,-0.68902c-1.15985,-0.47083 -2.12448,-1.1541 -2.89388,-2.04983c-0.7694,-0.89573 -1.36081,-2.01538 -1.77422,-3.35897zM253.4728,162.55006c0,-1.36655 -0.34451,-2.43453 -1.03353,-3.20394c-0.68902,-0.78089 -1.52733,-1.17133 -2.51492,-1.17133c-0.93017,0 -1.70532,0.35025 -2.32544,1.05075c-0.60863,0.70051 -0.91295,1.75126 -0.91295,3.15226c0,1.41249 0.3158,2.49196 0.9474,3.23839c0.64309,0.74644 1.4412,1.11966 2.39434,1.11966c0.98759,0 1.80867,-0.36174 2.46324,-1.08521c0.65457,-0.72347 0.98186,-1.75699 0.98186,-3.10058z" fill="#000000" stroke-width="0.26458"/><path d="M228.03912,196.07369v-56.375h51.75v56.375z" fill="none" stroke-width="0"/></g></g></svg>