<svg version="1.1" xmlns="http://www.w3.org/2000/svg" xmlns:xlink="http://www.w3.org/1999/xlink" width="51.75" height="56.375" viewBox="0,0,51.75,56.375"><g transform="translate(-228.03911,-139.69869)"><g data-paper-data="{&quot;isPaintingLayer&quot;:true}" fill-rule="nonzero" stroke="none" stroke-linecap="butt" stroke-linejoin="miter" stroke-miterlimit="10" stroke-dasharray="" stroke-dashoffset="0" style="mix-blend-mode: normal"><path d="M240.09477,161.73885h6.54568v2.66995c0.94166,-1.11391 1.88906,-1.90628 2.8422,-2.37711c0.96463,-0.47083 2.12448,-0.70625 3.47955,-0.70625c1.45843,0 2.61253,0.25838 3.46232,0.77515c0.84979,0.51676 1.54455,1.28617 2.08428,2.30821c1.10243,-1.1943 2.10725,-2.0039 3.01446,-2.42879c0.90721,-0.43638 2.02686,-0.65457 3.35897,-0.65457c1.96371,0 3.49677,0.58567 4.5992,1.757c1.10243,1.15985 1.65365,2.98001 1.65365,5.46048v11.48939h-7.028v-10.42141c0,-0.82682 -0.16077,-1.4412 -0.48231,-1.84313c-0.47083,-0.6316 -1.05649,-0.9474 -1.757,-0.9474c-0.82682,0 -1.49287,0.29858 -1.99815,0.89573c-0.50528,0.59715 -0.75792,1.55603 -0.75792,2.87665v9.43956h-7.028v-10.0769c0,-0.80385 -0.04593,-1.34933 -0.1378,-1.63642c-0.14929,-0.45935 -0.40767,-0.82682 -0.77515,-1.10243c-0.36748,-0.28709 -0.79812,-0.43064 -1.29191,-0.43064c-0.80385,0 -1.46416,0.30432 -1.98093,0.91295c-0.51677,0.60863 -0.77515,1.60771 -0.77515,2.99724v9.3362h-7.02799z" fill="#000000" stroke-width="0.26458"/><path d="M228.03912,196.07369v-56.375h51.75v56.375z" fill="none" stroke-width="0"/></g></g></svg>