<svg version="1.1" xmlns="http://www.w3.org/2000/svg" xmlns:xlink="http://www.w3.org/1999/xlink" width="51.75" height="56.375" viewBox="0,0,51.75,56.375"><g transform="translate(-228.03911,-139.69869)"><g data-paper-data="{&quot;isPaintingLayer&quot;:true}" fill-rule="nonzero" stroke="none" stroke-linecap="butt" stroke-linejoin="miter" stroke-miterlimit="10" stroke-dasharray="" stroke-dashoffset="0" style="mix-blend-mode: normal"><path d="M244.75442,159.3015h3.80683l-0.31006,2.60104c-0.0689,0.6316 -0.21245,1.34933 -0.43064,2.15319c0.43638,-0.21819 0.72347,-0.36748 0.86128,-0.44786c0.48231,-0.26413 0.84979,-0.45361 1.10243,-0.56845l2.39434,-1.13688l1.18856,3.63458l-2.65273,0.55122c-0.48231,0.09187 -1.20003,0.15502 -2.15318,0.18947c0.64309,0.50529 1.15411,0.96463 1.53307,1.37804l1.79145,1.94648l-3.10059,2.32544l-1.27468,-2.32544c-0.18374,-0.33303 -0.48232,-0.98185 -0.89573,-1.94648c-0.44786,1.0565 -0.74643,1.70533 -0.89572,1.94648l-1.29191,2.32544l-3.18672,-2.32544l1.92926,-1.94648c0.53973,-0.53973 1.06797,-0.99907 1.58474,-1.37804c-0.52825,-0.04593 -1.22301,-0.14928 -2.08428,-0.31005l-2.66995,-0.43064l1.24023,-3.63458l2.39434,1.08521c0.25264,0.11483 0.8785,0.47083 1.87758,1.06798c-0.21819,-0.96463 -0.35599,-1.68236 -0.41341,-2.15319z" fill="#000000" stroke-width="0.26458"/><path d="M228.03912,196.07369v-56.375h51.75v56.375z" fill="none" stroke-width="0"/></g></g></svg>