<svg version="1.1" xmlns="http://www.w3.org/2000/svg" xmlns:xlink="http://www.w3.org/1999/xlink" width="51.75" height="56.375" viewBox="0,0,51.75,56.375"><g transform="translate(-228.03911,-139.69869)"><g data-paper-data="{&quot;isPaintingLayer&quot;:true}" fill-rule="nonzero" stroke="none" stroke-linecap="butt" stroke-linejoin="miter" stroke-miterlimit="10" stroke-dasharray="" stroke-dashoffset="0" style="mix-blend-mode: normal"><path d="M261.12186,180.03176h-21.04953c0.24116,-2.07854 0.97037,-4.03076 2.18764,-5.85666c1.22875,-1.83739 3.52548,-4.00206 6.89019,-6.49401c2.05557,-1.52732 3.37045,-2.68717 3.94464,-3.47954c0.57418,-0.79237 0.86127,-1.54455 0.86127,-2.25654c0,-0.76941 -0.28709,-1.42397 -0.86127,-1.9637c-0.5627,-0.55122 -1.27469,-0.82683 -2.13596,-0.82683c-0.89572,0 -1.63068,0.28135 -2.20486,0.84405c-0.5627,0.5627 -0.94166,1.55604 -1.13688,2.98001l-7.028,-0.56844c0.27561,-1.97519 0.78089,-3.514 1.51584,-4.61643c0.73495,-1.11391 1.76848,-1.9637 3.10059,-2.54937c1.34359,-0.59715 3.1982,-0.89572 5.56383,-0.89572c2.46898,0 4.38675,0.28135 5.75331,0.84405c1.37804,0.56269 2.4575,1.42971 3.23839,2.60104c0.79237,1.15985 1.18856,2.46324 1.18856,3.91018c0,1.53881 -0.4536,3.00872 -1.36081,4.40973c-0.89573,1.401 -2.53215,2.93981 -4.90926,4.61642c-1.41249,0.97611 -2.35989,1.65939 -2.8422,2.04984c-0.47083,0.39044 -1.02779,0.90146 -1.67087,1.53306h10.9554z" fill="#000000" stroke-width="0.26458"/><path d="M228.03912,196.07369v-56.375h51.75v56.375z" fill="none" stroke-width="0"/></g></g></svg>