<svg version="1.1" xmlns="http://www.w3.org/2000/svg" xmlns:xlink="http://www.w3.org/1999/xlink" width="51.75" height="56.375" viewBox="0,0,51.75,56.375"><g transform="translate(-228.03911,-139.69869)"><g data-paper-data="{&quot;isPaintingLayer&quot;:true}" fill-rule="nonzero" stroke="none" stroke-linecap="butt" stroke-linejoin="miter" stroke-miterlimit="10" stroke-dasharray="" stroke-dashoffset="0" style="mix-blend-mode: normal"><path d="M260.72192,160.2642l-6.40788,1.01631c-0.32154,-0.81534 -0.61438,-1.37804 -0.8785,-1.6881c-0.25264,-0.32154 -0.67754,-0.64308 -1.27469,-0.96463v4.97817c3.49103,0.93017 5.82221,1.91202 6.99354,2.94555c1.55029,1.38952 2.32544,3.15226 2.32544,5.28822c0,1.25172 -0.28135,2.40009 -0.84405,3.4451c-0.55122,1.04501 -1.2632,1.91777 -2.13596,2.61827c-0.86127,0.70051 -1.77997,1.21153 -2.75608,1.53307c-0.97611,0.31005 -2.17041,0.49379 -3.5829,0.55121v3.25562h-2.51492v-3.25562c-1.6881,-0.14929 -3.06039,-0.41915 -4.11689,-0.80959c-1.04501,-0.40193 -1.95222,-0.95315 -2.72163,-1.65365c-0.75792,-0.7005 -1.34359,-1.45268 -1.757,-2.25654c-0.41341,-0.81534 -0.72347,-1.79719 -0.93018,-2.94555l6.95909,-0.8096c0.20671,1.13688 0.48231,1.95796 0.82682,2.46324c0.35599,0.50528 0.93592,0.95314 1.73977,1.34359v-6.08059c-2.3197,-0.64309 -3.9676,-1.20005 -4.94371,-1.67088c-0.96463,-0.47083 -1.80293,-1.223 -2.51492,-2.25653c-0.71199,-1.04501 -1.06798,-2.31396 -1.06798,-3.80683c0,-2.04409 0.71199,-3.74942 2.13596,-5.11597c1.43546,-1.37804 3.56567,-2.1417 6.39065,-2.29099v-1.70532h2.51492v1.70532c2.57234,0.16077 4.53604,0.76941 5.89111,1.8259c1.36656,1.0565 2.25654,2.50344 2.66995,4.34082zM249.64594,158.54165c-0.73495,0.24116 -1.24597,0.53974 -1.53307,0.89573c-0.28709,0.35599 -0.43064,0.77515 -0.43064,1.25746c0,0.50528 0.14355,0.9474 0.43064,1.32636c0.29858,0.36748 0.8096,0.67754 1.53307,0.93018zM252.16086,175.49153c0.97611,-0.21819 1.6881,-0.57418 2.13596,-1.06798c0.45935,-0.50528 0.68902,-1.06798 0.68902,-1.68809c0,-0.53973 -0.19522,-1.03353 -0.58567,-1.48139c-0.37896,-0.45935 -1.1254,-0.88424 -2.23931,-1.27469z" fill="#000000" stroke-width="0.26458"/><path d="M228.03912,196.07369v-56.375h51.75v56.375z" fill="none" stroke-width="0"/></g></g></svg>