<svg version="1.1" xmlns="http://www.w3.org/2000/svg" xmlns:xlink="http://www.w3.org/1999/xlink" width="51.75" height="56.375" viewBox="0,0,51.75,56.375"><g transform="translate(-228.03911,-139.69869)"><g data-paper-data="{&quot;isPaintingLayer&quot;:true}" fill-rule="nonzero" stroke="none" stroke-linecap="butt" stroke-linejoin="miter" stroke-miterlimit="10" stroke-dasharray="" stroke-dashoffset="0" style="mix-blend-mode: normal"><path d="M252.30332,172.07882h-6.54568v-0.65457c0,-1.11391 0.12632,-2.01538 0.37896,-2.70439c0.25264,-0.70051 0.62586,-1.33785 1.11966,-1.91203c0.50528,-0.57419 1.63068,-1.58475 3.37619,-3.03169c0.93018,-0.75792 1.39526,-1.45268 1.39526,-2.08428c0,-0.6316 -0.18948,-1.11965 -0.56844,-1.46416c-0.36748,-0.35599 -0.93018,-0.53399 -1.6881,-0.53399c-0.81534,0 -1.49287,0.26986 -2.03261,0.80959c-0.52825,0.53973 -0.86702,1.48139 -1.01631,2.82498l-6.68348,-0.82682c0.22967,-2.4575 1.11966,-4.43269 2.66995,-5.92557c1.56178,-1.50435 3.95038,-2.25653 7.1658,-2.25653c2.50343,0 4.52456,0.52251 6.06337,1.56752c2.09002,1.41249 3.13504,3.2958 3.13504,5.64995c0,0.97611 -0.26987,1.91777 -0.8096,2.82498c-0.53973,0.90721 -1.64216,2.01538 -3.30729,3.32452c-1.15985,0.91869 -1.8948,1.65938 -2.20486,2.22208c-0.29858,0.55122 -0.44786,1.27469 -0.44786,2.17041zM245.5337,173.8186h7.01077v6.18394h-7.01077z" fill="#000000" stroke-width="0.26458"/><path d="M228.03912,196.07369v-56.375h51.75v56.375z" fill="none" stroke-width="0"/></g></g></svg>