<svg version="1.1" xmlns="http://www.w3.org/2000/svg" xmlns:xlink="http://www.w3.org/1999/xlink" width="51.75" height="56.375" viewBox="0,0,51.75,56.375"><g transform="translate(-228.03911,-139.69869)"><g data-paper-data="{&quot;isPaintingLayer&quot;:true}" fill-rule="nonzero" stroke="none" stroke-linecap="butt" stroke-linejoin="miter" stroke-miterlimit="10" stroke-dasharray="" stroke-dashoffset="0" style="mix-blend-mode: normal"><path d="M261.36928,172.1587h-14.05599c0.12632,1.12539 0.43064,1.9637 0.91295,2.51492c0.67754,0.79237 1.56178,1.18856 2.65272,1.18856c0.68902,0 1.34359,-0.17226 1.96371,-0.51677c0.37896,-0.21819 0.78663,-0.60289 1.22301,-1.1541l6.90742,0.63734c-1.0565,1.83738 -2.33118,3.158 -3.82405,3.96186c-1.49287,0.79237 -3.63458,1.18856 -6.4251,1.18856c-2.42305,0 -4.32934,-0.33877 -5.71886,-1.01631c-1.38952,-0.68902 -2.54363,-1.77422 -3.46232,-3.25561c-0.90721,-1.49288 -1.36081,-3.24414 -1.36081,-5.25377c0,-2.85943 0.91295,-5.17339 2.73885,-6.94187c1.83738,-1.76848 4.36953,-2.65272 7.59643,-2.65272c2.61827,0 4.68533,0.39619 6.20117,1.18856c1.51584,0.79237 2.66995,1.94074 3.46232,3.44509c0.79237,1.50436 1.18856,3.46233 1.18856,5.87389zM254.23794,168.79973c-0.1378,-1.35507 -0.50528,-2.32544 -1.10243,-2.91111c-0.58567,-0.58567 -1.36081,-0.8785 -2.32544,-0.8785c-1.11391,0 -2.0039,0.44212 -2.66995,1.32636c-0.4249,0.55121 -0.69476,1.37229 -0.8096,2.46324z" fill="#000000" stroke-width="0.26458"/><path d="M228.03912,196.07369v-56.375h51.75v56.375z" fill="none" stroke-width="0"/></g></g></svg>