<svg version="1.1" xmlns="http://www.w3.org/2000/svg" xmlns:xlink="http://www.w3.org/1999/xlink" width="51.75" height="56.375" viewBox="0,0,51.75,56.375"><g transform="translate(-228.03911,-139.69869)"><g data-paper-data="{&quot;isPaintingLayer&quot;:true}" fill-rule="nonzero" stroke="none" stroke-linecap="butt" stroke-linejoin="miter" stroke-miterlimit="10" stroke-dasharray="" stroke-dashoffset="0" style="mix-blend-mode: normal"><path d="M252.90439,150.28629v5.64996h-0.77515c-0.72347,0 -1.26894,0.15503 -1.63642,0.46509c-0.35599,0.29857 -0.60863,0.76367 -0.75792,1.39528c-0.08039,0.3445 -0.12632,1.29189 -0.1378,2.84218c-0.01148,1.53881 -0.17225,2.75034 -0.48231,3.63458c-0.22967,0.67755 -0.55696,1.22302 -0.98185,1.63642c-0.32154,0.31005 -0.84979,0.62585 -1.58474,0.94739c0.7694,0.35601 1.33785,0.72923 1.70532,1.11967c0.37896,0.37897 0.7005,0.96463 0.96463,1.75699c0.26413,0.78089 0.39619,2.03262 0.39619,3.75518c0,1.55028 0.08039,2.56084 0.24116,3.03167c0.16077,0.47083 0.42489,0.80386 0.79237,0.99907c0.37896,0.19523 1.13114,0.29284 2.25654,0.29284v5.58104h-2.17041c-2.23931,0 -3.8298,-0.24689 -4.77146,-0.74067c-0.94166,-0.48232 -1.61345,-1.19431 -2.01538,-2.13596c-0.40193,-0.93019 -0.60289,-2.3312 -0.60289,-4.20304c0,-0.4134 0.01148,-0.82681 0.03445,-1.24023c0.01149,-0.25264 0.01723,-0.51102 0.01723,-0.77515c0,-1.33209 -0.12058,-2.27948 -0.36174,-2.84218c-0.24116,-0.5627 -0.59141,-0.97037 -1.05075,-1.22301c-0.44786,-0.25264 -1.10243,-0.39044 -1.96371,-0.41341v-5.90836c0.88424,0 1.54455,-0.1378 1.98093,-0.41341c0.44786,-0.27561 0.78663,-0.69476 1.01631,-1.25746c0.22967,-0.57418 0.34451,-1.53881 0.34451,-2.89388v-0.58566c-0.01148,-0.26412 -0.01722,-0.52824 -0.01722,-0.79237c0,-2.0326 0.16651,-3.50251 0.49954,-4.40973c0.34451,-0.90721 0.81534,-1.60197 1.41249,-2.08428c0.44786,-0.36747 1.0565,-0.64308 1.8259,-0.82683c1.02204,-0.24115 2.18763,-0.36173 3.49677,-0.36173z" fill="#000000" stroke-width="0.26458"/><path d="M228.03912,196.07369v-56.375h51.75v56.375z" fill="none" stroke-width="0"/></g></g></svg>