<svg version="1.1" xmlns="http://www.w3.org/2000/svg" xmlns:xlink="http://www.w3.org/1999/xlink" width="51.75" height="56.375" viewBox="0,0,51.75,56.375"><g transform="translate(-228.03911,-139.69869)"><g data-paper-data="{&quot;isPaintingLayer&quot;:true}" fill-rule="nonzero" stroke="none" stroke-linecap="butt" stroke-linejoin="miter" stroke-miterlimit="10" stroke-dasharray="" stroke-dashoffset="0" style="mix-blend-mode: normal"><path d="M249.63915,154.27976v6.95909h3.8585v5.11596h-3.8585v6.49401c0,0.78089 0.07464,1.29765 0.22391,1.55029c0.22968,0.39045 0.63161,0.58567 1.20579,0.58567c0.51677,0 1.24024,-0.14929 2.17043,-0.44786l0.51676,4.84035c-1.73403,0.37897 -3.35322,0.56845 -4.85759,0.56845c-1.74551,0 -3.03168,-0.22393 -3.8585,-0.6718c-0.82683,-0.44786 -1.44121,-1.1254 -1.84314,-2.03261c-0.39044,-0.91869 -0.58566,-2.40008 -0.58566,-4.44417v-6.44233h-2.58381v-5.11596h2.58381v-3.35897z" fill="#000000" stroke-width="0.26458"/><path d="M228.03912,196.07369v-56.375h51.75v56.375z" fill="none" stroke-width="0"/></g></g></svg>