<svg version="1.1" xmlns="http://www.w3.org/2000/svg" xmlns:xlink="http://www.w3.org/1999/xlink" width="51.75" height="56.375" viewBox="0,0,51.75,56.375"><g transform="translate(-228.03911,-139.69869)"><g data-paper-data="{&quot;isPaintingLayer&quot;:true}" fill-rule="nonzero" stroke="none" stroke-linecap="butt" stroke-linejoin="miter" stroke-miterlimit="10" stroke-dasharray="" stroke-dashoffset="0" style="mix-blend-mode: normal"><path d="M243.29111,154.35515h16.65704v5.59828h-11.28269l-0.60289,3.78961c0.78089,-0.36748 1.55029,-0.64309 2.30821,-0.82683c0.7694,-0.18373 1.52733,-0.2756 2.27376,-0.2756c2.5264,0 4.57623,0.76366 6.1495,2.29098c1.57326,1.52733 2.35989,3.45084 2.35989,5.77054c0,1.63068 -0.40767,3.1982 -1.22301,4.70255c-0.80386,1.50436 -1.95222,2.65273 -3.4451,3.4451c-1.48139,0.79237 -3.38193,1.18856 -5.70163,1.18856c-1.66513,0 -3.09484,-0.15503 -4.28914,-0.46509c-1.18282,-0.32154 -2.19338,-0.79237 -3.03168,-1.41249c-0.82682,-0.6316 -1.49862,-1.34359 -2.01538,-2.13596c-0.51676,-0.79237 -0.9474,-1.77996 -1.29191,-2.96278l7.0969,-0.77515c0.17225,1.13689 0.57418,2.0039 1.20578,2.60105c0.6316,0.58567 1.38378,0.8785 2.25654,0.8785c0.97611,0 1.77997,-0.36748 2.41157,-1.10243c0.64308,-0.74644 0.96463,-1.85461 0.96463,-3.32452c0,-1.50435 -0.32154,-2.60678 -0.96463,-3.30729c-0.64308,-0.7005 -1.49862,-1.05075 -2.5666,-1.05075c-0.67754,0 -1.3321,0.16651 -1.9637,0.49954c-0.47083,0.24115 -0.98759,0.67753 -1.55029,1.30913l-5.97724,-0.86127z" fill="#000000" stroke-width="0.26458"/><path d="M228.03912,196.07369v-56.375h51.75v56.375z" fill="none" stroke-width="0"/></g></g></svg>