<svg version="1.1" xmlns="http://www.w3.org/2000/svg" xmlns:xlink="http://www.w3.org/1999/xlink" width="51.75" height="56.375" viewBox="0,0,51.75,56.375"><g transform="translate(-228.03911,-139.69869)"><g data-paper-data="{&quot;isPaintingLayer&quot;:true}" fill-rule="nonzero" stroke="none" stroke-linecap="butt" stroke-linejoin="miter" stroke-miterlimit="10" stroke-dasharray="" stroke-dashoffset="0" style="mix-blend-mode: normal"><path d="M242.36213,150.42915c1.30914,0 2.47473,0.12058 3.49677,0.36173c0.7694,0.18375 1.37804,0.45936 1.8259,0.82683c0.59715,0.48231 1.06224,1.17707 1.39526,2.08428c0.34451,0.90722 0.51676,2.37713 0.51676,4.40973c0,0.26413 -0.00574,0.52825 -0.01722,0.79237v0.58566c0,1.35507 0.11484,2.3197 0.34451,2.89388c0.22967,0.5627 0.5627,0.98185 0.99908,1.25746c0.44786,0.27561 1.11391,0.41341 1.99815,0.41341v5.90836c-0.86127,0.02297 -1.52158,0.16077 -1.98093,0.41341c-0.44786,0.25264 -0.79237,0.66031 -1.03353,1.22301c-0.24116,0.5627 -0.36174,1.51009 -0.36174,2.84218c0,0.26413 0.00574,0.52251 0.01723,0.77515c0.02297,0.41342 0.03445,0.82683 0.03445,1.24023c0,1.87184 -0.20096,3.27285 -0.60289,4.20304c-0.40193,0.94165 -1.07372,1.65364 -2.01538,2.13596c-0.94166,0.49378 -2.53214,0.74067 -4.77146,0.74067h-2.17041v-5.58104c1.1254,0 1.87184,-0.09761 2.23931,-0.29284c0.37896,-0.19521 0.64883,-0.52824 0.8096,-0.99907c0.16077,-0.47083 0.24116,-1.48139 0.24116,-3.03167c0,-1.72256 0.13206,-2.97429 0.39619,-3.75518c0.26412,-0.79236 0.57992,-1.37802 0.9474,-1.75699c0.37896,-0.39044 0.95314,-0.76366 1.72255,-1.11967c-0.73495,-0.32154 -1.2632,-0.63734 -1.58475,-0.94739c-0.42489,-0.4134 -0.75218,-0.95887 -0.98185,-1.63642c-0.31006,-0.88424 -0.47083,-2.09577 -0.48231,-3.63458c-0.01148,-1.55029 -0.05742,-2.49768 -0.1378,-2.84218c-0.14929,-0.63161 -0.40767,-1.09671 -0.77515,-1.39528c-0.35599,-0.31006 -0.89572,-0.46509 -1.61919,-0.46509h-0.77515v-5.64996z" fill="#000000" stroke-width="0.26458"/><path d="M228.03912,196.07369v-56.375h51.75v56.375z" fill="none" stroke-width="0"/></g></g></svg>