<svg version="1.1" xmlns="http://www.w3.org/2000/svg" xmlns:xlink="http://www.w3.org/1999/xlink" width="51.75" height="56.375" viewBox="0,0,51.75,56.375"><g transform="translate(-228.03911,-139.69869)"><g data-paper-data="{&quot;isPaintingLayer&quot;:true}" fill-rule="nonzero" stroke="none" stroke-linecap="butt" stroke-linejoin="miter" stroke-miterlimit="10" stroke-dasharray="" stroke-dashoffset="0" style="mix-blend-mode: normal"><path d="M247.42416,167.22958l-6.70071,-0.70624c0.25264,-1.17133 0.61437,-2.09003 1.0852,-2.75608c0.48231,-0.67754 1.17133,-1.2632 2.06706,-1.757c0.64309,-0.35599 1.52733,-0.6316 2.65272,-0.82682c1.1254,-0.19522 2.34267,-0.29283 3.6518,-0.29283c2.10151,0 3.7896,0.12058 5.06429,0.36173c1.27468,0.22967 2.33692,0.71773 3.18671,1.46417c0.59715,0.51676 1.06798,1.25172 1.41249,2.20486c0.34451,0.94166 0.51677,1.84313 0.51677,2.7044v8.07875c0,0.86127 0.05168,1.53881 0.15503,2.0326c0.11484,0.48231 0.35599,1.10243 0.72347,1.86035h-6.58013c-0.26412,-0.47083 -0.43638,-0.82682 -0.51676,-1.06798c-0.08039,-0.25264 -0.16077,-0.64308 -0.24116,-1.17133c-0.91869,0.88424 -1.83164,1.51584 -2.73885,1.8948c-1.24023,0.50529 -2.68143,0.75793 -4.3236,0.75793c-2.18189,0 -3.84128,-0.50528 -4.97816,-1.51585c-1.1254,-1.01056 -1.6881,-2.25653 -1.6881,-3.73792c0,-1.38953 0.40767,-2.53215 1.22301,-3.42787c0.81534,-0.89573 2.3197,-1.56178 4.51308,-1.99816c2.62976,-0.52825 4.33508,-0.89572 5.11597,-1.10243c0.78089,-0.21819 1.60771,-0.49954 2.48047,-0.84405c0,-0.86127 -0.178,-1.46417 -0.53399,-1.80867c-0.35599,-0.34451 -0.98185,-0.51677 -1.87758,-0.51677c-1.14837,0 -2.00964,0.18374 -2.58382,0.55122c-0.44786,0.28709 -0.8096,0.82682 -1.0852,1.61919zM253.50477,170.91584c-0.96463,0.34451 -1.96945,0.64883 -3.01446,0.91295c-1.42397,0.37897 -2.32544,0.75219 -2.7044,1.11966c-0.39044,0.37896 -0.58567,0.8096 -0.58567,1.29191c0,0.55121 0.18948,1.00482 0.56844,1.36081c0.39045,0.34451 0.95889,0.51677 1.70532,0.51677c0.78089,0 1.50436,-0.18948 2.17041,-0.56844c0.67754,-0.37896 1.15411,-0.83831 1.42972,-1.37804c0.28709,-0.55121 0.43064,-1.2632 0.43064,-2.13596z" fill="#000000" stroke-width="0.26458"/><path d="M228.03912,196.07369v-56.375h51.75v56.375z" fill="none" stroke-width="0"/></g></g></svg>