<svg version="1.1" xmlns="http://www.w3.org/2000/svg" xmlns:xlink="http://www.w3.org/1999/xlink" width="51.75" height="56.375" viewBox="0,0,51.75,56.375"><g transform="translate(-228.03913,-139.69869)"><g data-paper-data="{&quot;isPaintingLayer&quot;:true}" fill-rule="nonzero" stroke="none" stroke-linecap="butt" stroke-linejoin="miter" stroke-miterlimit="10" stroke-dasharray="" stroke-dashoffset="0" style="mix-blend-mode: normal"><path d="M240.02408,170.61309c0,-2.79053 0.94166,-5.08726 2.82498,-6.89019c1.88332,-1.81442 4.42695,-2.72163 7.63088,-2.72163c3.66329,0 6.43085,1.06224 8.30268,3.18671c1.50436,1.71107 2.25654,3.81832 2.25654,6.32175c0,2.81349 -0.93592,5.12171 -2.80775,6.92464c-1.86035,1.79145 -4.43843,2.68718 -7.73424,2.68718c-2.93981,0 -5.31693,-0.74644 -7.13135,-2.23932c-2.22783,-1.84887 -3.34174,-4.27192 -3.34174,-7.26915zM247.05208,170.59589c0,1.63068 0.32729,2.83646 0.98186,3.61735c0.66605,0.78089 1.49861,1.17133 2.49769,1.17133c1.01056,0 1.83738,-0.3847 2.48047,-1.15411c0.65457,-0.7694 0.98185,-2.00389 0.98185,-3.70347c0,-1.58475 -0.32728,-2.76182 -0.98185,-3.53123c-0.65457,-0.78089 -1.46416,-1.17133 -2.42879,-1.17133c-1.02205,0 -1.8661,0.39619 -2.53215,1.18856c-0.66605,0.78089 -0.99908,1.97519 -0.99908,3.5829z" fill="#000000" stroke-width="0.26458"/><path d="M228.03914,196.07369v-56.375h51.75v56.375z" fill="none" stroke-width="0"/></g></g></svg>